<svg width="992" height="992" viewBox="0 0 992 992" fill="none" xmlns="http://www.w3.org/2000/svg">
<rect width="991.649" height="991.649" rx="223.121" fill="#111827"/>
<path d="M550.971 366.534C572.83 366.534 590.55 384.254 590.55 406.113C590.55 427.972 572.83 445.692 550.971 445.692H414.644C388.845 448.037 336.894 472.781 335.487 552.994C334.221 625.129 334.757 739.657 335.305 799.094C335.395 808.887 327.487 816.853 317.694 816.853H228.184C218.469 816.853 210.594 808.977 210.594 799.262V530.824C210.594 510.119 218.889 490.277 233.626 475.733L321.676 388.842C336.16 374.548 355.692 366.534 376.041 366.534H550.971Z" fill="#F5F7FB"/>
<path d="M539.538 174.797C614.844 174.799 675.515 201.796 717.553 245.826C758.852 289.082 779.277 345.713 780.944 401.008C782.608 456.183 765.674 513.2 728.083 557.203C689.604 602.246 632.156 630.393 560.646 630.393H442.789C433.074 630.393 425.199 622.517 425.199 612.802V542.44C425.199 532.725 433.074 524.849 442.789 524.849H560.646C602.596 524.849 630.243 509.239 647.833 488.648C666.311 467.018 676.424 436.525 675.449 404.189C674.477 371.972 662.58 341.089 641.212 318.71C621.229 297.779 590.253 281.394 544.055 280.388L539.538 280.34H319.655C309.94 280.34 302.065 272.465 302.065 262.75V192.387C302.065 182.672 309.94 174.797 319.655 174.797H539.538Z" fill="#F5F7FB"/>
</svg>
