<svg width="1302" height="617" viewBox="0 0 1302 617" fill="none" xmlns="http://www.w3.org/2000/svg">
<rect x="483.172" width="334.735" height="334.735" rx="75.3153" fill="#0F4CFF"/>
<path d="M669.154 123.726C676.532 123.726 682.514 129.707 682.514 137.086C682.514 144.464 676.532 150.445 669.154 150.445H623.136C614.427 151.237 596.891 159.59 596.416 186.666C595.989 211.015 596.17 249.675 596.354 269.738C596.385 273.044 593.716 275.732 590.41 275.732H560.196C556.916 275.732 554.258 273.074 554.258 269.795V179.182C554.258 172.193 557.058 165.495 562.033 160.586L591.754 131.256C596.643 126.431 603.236 123.726 610.105 123.726H669.154Z" fill="#F5F7FB"/>
<path d="M665.294 59.0039C690.714 59.0047 711.194 68.1176 725.384 82.98C739.324 97.5812 746.219 116.697 746.782 135.362C747.343 153.987 741.627 173.233 728.938 188.087C715.949 203.291 696.558 212.792 672.419 212.792H632.636C629.357 212.792 626.699 210.134 626.699 206.854V183.103C626.699 179.824 629.357 177.165 632.636 177.165H672.419C686.58 177.165 695.912 171.896 701.85 164.945C708.087 157.644 711.5 147.351 711.171 136.436C710.843 125.561 706.827 115.136 699.615 107.582C692.869 100.517 682.413 94.986 666.819 94.6467L665.294 94.6305H591.072C587.793 94.6305 585.134 91.9721 585.134 88.6927V64.9417C585.134 61.6623 587.793 59.0039 591.072 59.0039H665.294Z" fill="#F5F7FB"/>
<path d="M756.192 454.801C782.101 449.564 811.303 457.365 831.519 475.31C834.598 478.043 834.415 482.789 831.404 485.598L817.232 498.821C814.222 501.629 809.527 501.418 806.27 498.899C794.301 489.641 777.47 485.486 762.986 488.413C754.884 490.05 748.038 493.791 743.049 499.55C738.107 505.252 734.038 514.029 733.323 527.41C732.361 545.414 736.256 556.894 741.287 564.083C746.282 571.221 753.466 575.673 762.055 577.769C777.514 581.543 795.031 577.169 805.912 569.32C809.251 566.911 813.961 566.571 817.049 569.294L831.587 582.114C834.675 584.837 834.993 589.58 831.933 592.334C812.403 609.914 780.98 617.687 753.924 611.083C738.459 607.308 723.633 598.667 713.19 583.743C702.783 568.872 697.811 549.321 699.08 525.58C700.138 505.785 706.469 489.399 717.132 477.094C727.746 464.844 741.708 457.728 756.192 454.801Z" fill="#111827"/>
<path fill-rule="evenodd" clip-rule="evenodd" d="M346.655 460.245C361.654 460.245 374.593 463.464 385.472 469.901C396.415 476.274 404.848 485.221 410.77 496.744C416.693 508.202 419.653 521.593 419.653 536.914C419.653 552.106 416.693 565.463 410.77 576.986C404.848 588.444 396.415 597.392 385.472 603.829C374.593 610.202 361.654 613.389 346.655 613.389C331.656 613.389 318.683 610.202 307.74 603.829C296.861 597.392 288.46 588.444 282.538 576.986C276.615 565.463 273.655 552.106 273.655 536.914C273.655 521.593 276.615 508.202 282.538 496.744C288.46 485.221 296.861 476.274 307.74 469.901C318.683 463.464 331.656 460.245 346.655 460.245ZM346.847 491.626C339.959 491.626 334.166 493.59 329.467 497.517C324.832 501.444 321.323 506.787 318.941 513.546C316.624 520.305 315.466 527.998 315.466 536.624C315.466 545.25 316.624 552.943 318.941 559.702C321.323 566.461 324.832 571.804 329.467 575.731C334.166 579.593 339.959 581.524 346.847 581.525C353.671 581.525 359.369 579.593 363.939 575.731C368.51 571.804 371.954 566.461 374.271 559.702C376.653 552.943 377.843 545.25 377.843 536.624C377.843 527.998 376.653 520.305 374.271 513.546C371.954 506.787 368.509 501.444 363.939 497.517C359.369 493.59 353.671 491.626 346.847 491.626Z" fill="#111827"/>
<path fill-rule="evenodd" clip-rule="evenodd" d="M927.346 460.245C942.345 460.245 955.285 463.464 966.164 469.901C977.107 476.274 985.54 485.221 991.462 496.744C997.384 508.202 1000.35 521.593 1000.35 536.914C1000.35 552.106 997.384 565.463 991.462 576.986C985.54 588.444 977.107 597.392 966.164 603.829C955.285 610.202 942.345 613.389 927.346 613.389C912.347 613.389 899.375 610.202 888.432 603.829C877.553 597.392 869.152 588.444 863.229 576.986C857.307 565.463 854.346 552.106 854.346 536.914C854.346 521.593 857.307 508.202 863.229 496.744C869.152 485.221 877.553 476.274 888.432 469.901C899.375 463.464 912.347 460.245 927.346 460.245ZM927.539 491.626C920.651 491.626 914.857 493.59 910.158 497.517C905.523 501.444 902.014 506.787 899.633 513.546C897.315 520.305 896.157 527.998 896.157 536.624C896.157 545.25 897.315 552.943 899.633 559.702C902.014 566.461 905.523 571.804 910.158 575.731C914.857 579.593 920.651 581.524 927.539 581.525C934.362 581.525 940.06 579.593 944.631 575.731C949.201 571.804 952.645 566.461 954.963 559.702C957.344 552.943 958.534 545.25 958.534 536.624C958.534 527.998 957.344 520.305 954.963 513.546C952.645 506.787 949.201 501.444 944.631 497.517C940.06 493.59 934.362 491.626 927.539 491.626Z" fill="#111827"/>
<path fill-rule="evenodd" clip-rule="evenodd" d="M1238.13 460.245C1246.37 460.245 1254.25 461.211 1261.79 463.142C1269.38 465.073 1276.11 468.066 1281.97 472.121C1287.89 476.177 1292.56 481.392 1295.97 487.765C1299.38 494.073 1301.09 501.638 1301.09 510.457V603.037C1301.09 607.154 1297.75 610.492 1293.63 610.492H1269.53C1265.41 610.492 1262.07 607.154 1262.07 603.037V589.924H1260.92C1258.53 594.559 1255.35 598.648 1251.36 602.188C1247.37 605.664 1242.57 608.4 1236.97 610.396C1231.37 612.327 1224.9 613.293 1217.56 613.293C1208.1 613.293 1199.66 611.651 1192.26 608.368C1184.86 605.02 1179 600.096 1174.69 593.595C1170.44 587.029 1168.32 578.853 1168.32 569.068C1168.32 560.829 1169.83 553.908 1172.85 548.307C1175.88 542.707 1180 538.201 1185.21 534.79C1190.43 531.378 1196.35 528.802 1202.98 527.064C1209.67 525.326 1216.69 524.103 1224.03 523.395C1232.66 522.494 1239.61 521.657 1244.89 520.885C1250.17 520.048 1254 518.825 1256.38 517.215C1258.76 515.606 1259.95 513.224 1259.95 510.069V509.49C1259.95 503.375 1258.02 498.644 1254.16 495.297C1250.36 491.949 1244.95 490.275 1237.94 490.275C1230.53 490.275 1224.64 491.916 1220.26 495.199C1217.67 497.11 1215.59 499.315 1214.03 501.815C1212.16 504.825 1209.04 507.159 1205.5 506.873L1181.99 504.963C1177.51 504.599 1174.32 500.342 1175.91 496.13C1178.04 490.482 1181.04 485.408 1184.92 480.908C1190.59 474.278 1197.89 469.193 1206.84 465.652C1215.85 462.047 1226.28 460.245 1238.13 460.245ZM1260.24 541.742C1258.95 542.579 1257.18 543.35 1254.93 544.058C1252.74 544.702 1250.26 545.314 1247.49 545.893C1244.73 546.408 1241.96 546.891 1239.19 547.342C1236.42 547.728 1233.91 548.083 1231.66 548.405C1226.83 549.113 1222.61 550.239 1219.01 551.784C1215.4 553.329 1212.6 555.42 1210.61 558.059C1208.61 560.634 1207.62 563.853 1207.62 567.716C1207.62 573.316 1209.64 577.598 1213.7 580.559C1217.82 583.456 1223.03 584.904 1229.34 584.904C1235.39 584.904 1240.74 583.713 1245.37 581.331C1250 578.885 1253.64 575.602 1256.28 571.482C1258.92 567.363 1260.24 562.695 1260.24 557.481V541.742Z" fill="#111827"/>
<path d="M497.383 462.174H517.834C521.951 462.174 525.289 465.511 525.289 469.629V485.619C525.289 489.736 521.951 493.073 517.834 493.073H497.383V564.914C497.383 568.712 497.962 571.673 499.121 573.797C500.28 575.857 501.889 577.305 503.949 578.142C506.073 578.979 508.52 579.399 511.288 579.399C513.219 579.399 515.15 579.237 517.081 578.915C519.549 578.422 521.939 580.013 522.459 582.475L526.59 602.021C527.385 605.783 525.181 609.508 521.438 610.387C520.76 610.546 520.048 610.709 519.303 610.876C515.569 611.777 511.031 612.325 505.688 612.519C495.774 612.905 487.084 611.585 479.616 608.56C472.213 605.534 466.452 600.834 462.332 594.461C458.341 588.287 456.313 580.543 456.249 571.228V493.073H443.426C439.309 493.073 435.971 489.736 435.971 485.619V469.629C435.971 465.511 439.309 462.174 443.426 462.174H456.249V434.095C456.249 429.978 459.586 426.64 463.704 426.64H489.928C494.045 426.64 497.383 429.978 497.383 434.095V462.174Z" fill="#111827"/>
<path d="M220.702 451.712C236.324 448.689 249.26 449.153 258.908 450.594C261.765 451.021 265.148 451.756 268.027 452.453C272.028 453.423 272.931 457.339 272.026 461.355L266.128 487.536C265.223 491.553 261.343 493.685 257.34 492.721C256.315 492.474 254.92 492.208 252.741 491.882C247.281 491.067 239.141 490.666 228.635 492.699C224.809 493.44 222.997 494.805 221.931 495.915C220.662 497.238 219.451 499.297 218.518 502.395C216.446 509.279 216.972 516.007 216.974 521.116L216.958 603.043C216.957 607.16 213.618 610.497 209.501 610.496L182.664 610.49C178.547 610.49 175.21 607.151 175.211 603.034L175.227 521.131L175.192 519.887C175.06 515.697 174.77 502.897 178.542 490.364C183.263 474.677 195.146 456.659 220.702 451.712Z" fill="#111827"/>
<path fill-rule="evenodd" clip-rule="evenodd" d="M78.0204 412.738C93.0195 412.738 105.799 415.602 116.356 421.331C126.913 426.996 134.959 434.882 140.495 444.989C146.096 455.031 148.896 466.619 148.896 479.751C148.896 492.883 146.064 504.47 140.399 514.512C134.734 524.554 126.527 532.376 115.776 537.977C105.09 543.577 92.151 546.378 76.959 546.378H41.8109V603.039C41.8109 607.156 38.4732 610.493 34.3561 610.493H7.45478C3.33761 610.493 0 607.156 0 603.039V420.193C0 416.076 3.33762 412.738 7.45478 412.738H78.0204ZM41.8109 512.871H70.1987C78.2454 512.871 84.8765 511.486 90.0908 508.718C95.3693 505.886 99.2965 501.992 101.871 497.035C104.511 492.014 105.83 486.252 105.83 479.751C105.83 473.185 104.511 467.455 101.871 462.563C99.2964 457.606 95.3694 453.775 90.0908 451.072C84.8123 448.304 78.1174 446.921 70.0065 446.921H41.8109V512.871Z" fill="#111827"/>
<path d="M1056.3 567.254C1056.3 573.841 1061.64 579.182 1068.23 579.182H1072.37C1076.49 579.182 1079.82 582.519 1079.82 586.636V603.037C1079.82 607.154 1076.49 610.492 1072.37 610.492H1047.97C1029.85 610.492 1015.17 595.806 1015.17 577.691V420.191C1015.17 416.074 1018.5 412.736 1022.62 412.736H1048.85C1052.96 412.736 1056.3 416.074 1056.3 420.191V567.254Z" fill="#111827"/>
<path d="M1131.59 567.149C1131.59 573.736 1136.93 579.076 1143.52 579.076H1147.66C1151.78 579.076 1155.12 582.414 1155.12 586.531V602.931C1155.12 607.049 1151.78 610.386 1147.66 610.386H1123.26C1105.14 610.386 1090.46 595.701 1090.46 577.585V420.086C1090.46 415.968 1093.8 412.631 1097.91 412.631H1124.14C1128.26 412.631 1131.59 415.968 1131.59 420.086V567.149Z" fill="#111827"/>
<path fill-rule="evenodd" clip-rule="evenodd" d="M614.924 463.461C629.923 463.461 642.862 466.68 653.741 473.117C664.684 479.49 673.117 488.438 679.039 499.96C684.962 511.419 687.923 524.809 687.923 540.13C687.922 555.322 684.962 568.68 679.039 580.202C673.117 591.66 664.684 600.608 653.741 607.045C642.862 613.418 629.923 616.605 614.924 616.605C599.925 616.605 586.952 613.418 576.009 607.045C565.13 600.608 556.729 591.661 550.807 580.202C544.885 568.68 541.924 555.322 541.924 540.13C541.924 524.809 544.885 511.419 550.807 499.96C556.729 488.438 565.13 479.49 576.009 473.117C586.952 466.68 599.925 463.461 614.924 463.461ZM615.116 494.842C608.228 494.842 602.435 496.807 597.736 500.733C593.101 504.66 589.592 510.003 587.21 516.762C584.893 523.522 583.735 531.214 583.735 539.84C583.735 548.466 584.893 556.159 587.21 562.918C589.592 569.677 593.101 575.02 597.736 578.947C602.435 582.809 608.228 584.741 615.116 584.741C621.94 584.741 627.638 582.81 632.208 578.947C636.779 575.02 640.223 569.677 642.54 562.918C644.922 556.159 646.112 548.466 646.112 539.84C646.112 531.214 644.922 523.522 642.54 516.762C640.223 510.003 636.778 504.66 632.208 500.733C627.638 496.806 621.94 494.842 615.116 494.842Z" fill="#111827"/>
</svg>
