<svg width="1508" height="312" viewBox="0 0 1508 312" fill="none" xmlns="http://www.w3.org/2000/svg">
<rect width="311.501" height="311.501" rx="70.0878" fill="#0F4CFF"/>
<path d="M173.077 115.138C179.944 115.138 185.51 120.704 185.51 127.57C185.51 134.437 179.944 140.003 173.077 140.003H130.254C122.149 140.74 105.83 148.512 105.388 173.709C104.991 196.369 105.159 232.345 105.331 251.015C105.359 254.092 102.875 256.594 99.7989 256.594H71.6819C68.6302 256.594 66.1562 254.12 66.1562 251.068V166.745C66.1562 160.241 68.762 154.008 73.3914 149.44L101.05 122.145C105.6 117.655 111.735 115.138 118.127 115.138H173.077Z" fill="#F5F7FB"/>
<path d="M169.486 54.9082C193.141 54.9089 212.2 63.3894 225.405 77.2201C238.378 90.8079 244.794 108.597 245.317 125.967C245.84 143.298 240.521 161.209 228.712 175.031C216.625 189.18 198.579 198.022 176.116 198.022H139.095C136.043 198.022 133.569 195.548 133.569 192.496V170.394C133.569 167.342 136.043 164.868 139.095 164.868H176.116C189.294 164.868 197.978 159.965 203.504 153.497C209.308 146.702 212.485 137.123 212.179 126.966C211.874 116.846 208.136 107.145 201.424 100.115C195.147 93.54 185.417 88.3929 170.905 88.0771L169.486 88.062H100.415C97.3635 88.062 94.8895 85.5881 94.8895 82.5364V60.4338C94.8895 57.3821 97.3635 54.9082 100.415 54.9082H169.486Z" fill="#F5F7FB"/>
<path d="M1023.56 102.569C1046.59 97.914 1072.56 104.849 1090.53 120.803C1093.27 123.233 1093.1 127.453 1090.43 129.95L1077.83 141.705C1075.15 144.202 1070.98 144.014 1068.08 141.775C1057.44 133.544 1042.48 129.85 1029.6 132.452C1022.4 133.908 1016.31 137.234 1011.87 142.353C1007.48 147.423 1003.86 155.226 1003.23 167.123C1002.37 183.13 1005.84 193.335 1010.31 199.727C1014.75 206.073 1021.14 210.031 1028.77 211.895C1042.52 215.25 1058.09 211.361 1067.76 204.383C1070.73 202.241 1074.92 201.939 1077.66 204.36L1090.59 215.757C1093.33 218.178 1093.62 222.395 1090.9 224.844C1073.53 240.473 1045.6 247.384 1021.54 241.512C1007.79 238.156 994.613 230.474 985.329 217.206C976.076 203.984 971.656 186.603 972.784 165.496C973.724 147.897 979.353 133.329 988.833 122.389C998.269 111.498 1010.68 105.172 1023.56 102.569Z" fill="#F5F7FB"/>
<path fill-rule="evenodd" clip-rule="evenodd" d="M659.46 107.409C672.794 107.409 684.298 110.271 693.97 115.994C703.699 121.66 711.196 129.615 716.462 139.859C721.727 150.046 724.359 161.951 724.359 175.572C724.359 189.079 721.727 200.954 716.462 211.198C711.196 221.385 703.699 229.34 693.97 235.063C684.298 240.729 672.794 243.563 659.46 243.563C646.125 243.563 634.592 240.729 624.862 235.063C615.19 229.34 607.721 221.385 602.456 211.198C597.191 200.954 594.559 189.079 594.559 175.572C594.559 161.951 597.191 150.046 602.456 139.859C607.721 129.615 615.19 121.66 624.862 115.994C634.592 110.271 646.125 107.409 659.46 107.409ZM659.63 135.309C653.507 135.309 648.356 137.055 644.178 140.546C640.058 144.037 636.938 148.788 634.821 154.797C632.76 160.806 631.731 167.646 631.731 175.315C631.731 182.983 632.76 189.823 634.821 195.832C636.938 201.841 640.058 206.592 644.178 210.083C648.356 213.516 653.507 215.233 659.63 215.233C665.697 215.233 670.763 213.517 674.826 210.083C678.89 206.592 681.952 201.841 684.012 195.832C686.129 189.823 687.187 182.983 687.187 175.315C687.187 167.646 686.129 160.806 684.012 154.797C681.952 148.788 678.89 144.037 674.826 140.546C670.763 137.055 665.697 135.309 659.63 135.309Z" fill="#F5F7FB"/>
<path fill-rule="evenodd" clip-rule="evenodd" d="M1175.72 107.409C1189.06 107.409 1200.56 110.271 1210.23 115.994C1219.96 121.66 1227.46 129.615 1232.73 139.859C1237.99 150.046 1240.62 161.951 1240.62 175.572C1240.62 189.079 1237.99 200.954 1232.73 211.198C1227.46 221.385 1219.96 229.34 1210.23 235.063C1200.56 240.729 1189.06 243.563 1175.72 243.563C1162.39 243.563 1150.86 240.729 1141.13 235.063C1131.46 229.34 1123.99 221.385 1118.72 211.198C1113.46 200.954 1110.82 189.079 1110.82 175.572C1110.82 161.951 1113.46 150.046 1118.72 139.859C1123.99 129.615 1131.46 121.66 1141.13 115.994C1150.86 110.271 1162.39 107.409 1175.72 107.409ZM1175.9 135.309C1169.77 135.309 1164.62 137.055 1160.44 140.546C1156.32 144.037 1153.2 148.788 1151.09 154.797C1149.03 160.806 1148 167.646 1148 175.315C1148 182.983 1149.03 189.823 1151.09 195.832C1153.2 201.841 1156.32 206.592 1160.44 210.083C1164.62 213.516 1169.77 215.233 1175.9 215.233C1181.96 215.233 1187.03 213.517 1191.09 210.083C1195.15 206.592 1198.22 201.841 1200.28 195.832C1202.39 189.823 1203.45 182.983 1203.45 175.315C1203.45 167.646 1202.39 160.806 1200.28 154.797C1198.22 148.788 1195.15 144.037 1191.09 140.546C1187.03 137.055 1181.96 135.309 1175.9 135.309Z" fill="#F5F7FB"/>
<path fill-rule="evenodd" clip-rule="evenodd" d="M1452.03 107.409C1459.35 107.409 1466.36 108.268 1473.06 109.985C1479.81 111.702 1485.79 114.363 1491 117.968C1496.27 121.574 1500.41 126.21 1503.45 131.876C1506.48 137.485 1508 144.21 1508 152.05V234.359C1508 238.019 1505.03 240.987 1501.37 240.987H1479.94C1476.28 240.987 1473.32 238.019 1473.32 234.359V222.701H1472.28C1470.17 226.822 1467.34 230.457 1463.79 233.604C1460.24 236.695 1455.97 239.127 1450.99 240.901C1446.02 242.618 1440.26 243.477 1433.74 243.477C1425.33 243.477 1417.83 242.017 1411.25 239.098C1404.67 236.122 1399.46 231.745 1395.62 225.964C1391.85 220.127 1389.96 212.858 1389.96 204.159C1389.96 196.834 1391.3 190.68 1393.99 185.701C1396.68 180.722 1400.35 176.717 1404.98 173.683C1409.62 170.65 1414.88 168.36 1420.78 166.815C1426.73 165.27 1432.97 164.183 1439.49 163.553C1447.16 162.752 1453.34 162.008 1458.03 161.321C1462.73 160.577 1466.13 159.49 1468.25 158.059C1470.37 156.628 1471.43 154.51 1471.43 151.706V151.191C1471.43 145.754 1469.71 141.548 1466.28 138.572C1462.9 135.596 1458.09 134.108 1451.85 134.108C1445.27 134.108 1440.04 135.567 1436.14 138.486C1433.83 140.184 1431.99 142.145 1430.61 144.367C1428.94 147.043 1426.16 149.119 1423.02 148.864L1402.12 147.166C1398.13 146.843 1395.3 143.058 1396.71 139.313C1398.6 134.292 1401.27 129.781 1404.72 125.78C1409.76 119.886 1416.26 115.365 1424.21 112.217C1432.22 109.012 1441.49 107.409 1452.03 107.409ZM1471.68 179.865C1470.54 180.608 1468.97 181.295 1466.96 181.924C1465.02 182.496 1462.81 183.04 1460.35 183.555C1457.89 184.013 1455.43 184.442 1452.97 184.843C1450.51 185.186 1448.28 185.502 1446.27 185.788C1441.98 186.418 1438.23 187.419 1435.03 188.793C1431.82 190.166 1429.33 192.025 1427.56 194.372C1425.78 196.661 1424.9 199.523 1424.9 202.957C1424.9 207.936 1426.7 211.742 1430.31 214.375C1433.97 216.95 1438.6 218.238 1444.21 218.238C1449.59 218.238 1454.34 217.179 1458.46 215.061C1462.58 212.886 1465.82 209.968 1468.16 206.305C1470.51 202.643 1471.68 198.493 1471.68 193.858V179.865Z" fill="#F5F7FB"/>
<path d="M793.464 109.124H811.647C815.307 109.124 818.274 112.092 818.274 115.752V129.968C818.274 133.628 815.307 136.596 811.647 136.596H793.464V200.466C793.465 203.842 793.98 206.475 795.01 208.364C796.04 210.195 797.471 211.482 799.303 212.226C801.191 212.97 803.366 213.343 805.827 213.343C807.543 213.343 809.261 213.2 810.977 212.914C813.171 212.475 815.296 213.889 815.759 216.078L819.432 233.456C820.138 236.8 818.178 240.112 814.851 240.893C814.248 241.035 813.615 241.18 812.953 241.328C809.633 242.13 805.598 242.617 800.848 242.789C792.035 243.132 784.308 241.959 777.669 239.269C771.088 236.579 765.965 232.401 762.303 226.735C758.754 221.246 756.952 214.361 756.894 206.079V136.596H745.494C741.834 136.596 738.866 133.628 738.866 129.968V115.752C738.866 112.092 741.834 109.124 745.494 109.124H756.894V84.1606C756.894 80.5002 759.862 77.5329 763.522 77.5329H786.837C790.497 77.5329 793.464 80.5002 793.464 84.1606V109.124Z" fill="#F5F7FB"/>
<path d="M547.481 99.8237C561.37 97.1356 572.87 97.548 581.448 98.8295C583.988 99.209 586.996 99.8621 589.555 100.482C593.113 101.344 593.916 104.826 593.111 108.397L587.867 131.673C587.062 135.244 583.613 137.139 580.054 136.282C579.143 136.063 577.902 135.826 575.965 135.537C571.111 134.812 563.874 134.455 554.534 136.263C551.132 136.921 549.521 138.135 548.574 139.122C547.446 140.298 546.369 142.128 545.54 144.883C543.698 151.003 544.165 156.985 544.166 161.527L544.152 234.364C544.151 238.025 541.183 240.991 537.523 240.991L513.663 240.986C510.003 240.985 507.036 238.017 507.037 234.357L507.051 161.54L507.02 160.435C506.903 156.709 506.645 145.33 509.999 134.187C514.196 120.24 524.76 104.222 547.481 99.8237Z" fill="#F5F7FB"/>
<path fill-rule="evenodd" clip-rule="evenodd" d="M420.63 65.1733C433.965 65.1733 445.326 67.7197 454.712 72.8133C464.098 77.8496 471.251 84.8608 476.173 93.8458C481.152 102.774 483.642 113.076 483.642 124.751C483.642 136.426 481.124 146.727 476.088 155.655C471.051 164.583 463.754 171.538 454.197 176.517C444.696 181.496 433.193 183.986 419.686 183.986H388.438V234.36C388.438 238.021 385.47 240.988 381.81 240.988H357.893C354.233 240.988 351.266 238.021 351.266 234.36V71.801C351.266 68.1406 354.233 65.1733 357.893 65.1733H420.63ZM388.438 154.197H413.676C420.83 154.197 426.725 152.966 431.361 150.505C436.054 147.987 439.545 144.525 441.835 140.118C444.181 135.654 445.354 130.532 445.354 124.751C445.354 118.914 444.181 113.82 441.835 109.47C439.545 105.063 436.054 101.658 431.361 99.2541C426.668 96.7933 420.716 95.5636 413.505 95.5636H388.438V154.197Z" fill="#F5F7FB"/>
<path d="M1290.37 202.546C1290.37 208.403 1295.12 213.15 1300.98 213.15H1304.66C1308.32 213.15 1311.29 216.118 1311.29 219.778V234.359C1311.29 238.019 1308.32 240.987 1304.66 240.987H1282.96C1266.86 240.987 1253.8 227.93 1253.8 211.825V71.7995C1253.8 68.1391 1256.77 65.1718 1260.43 65.1718H1283.74C1287.4 65.1718 1290.37 68.1391 1290.37 71.7995V202.546Z" fill="#F5F7FB"/>
<path d="M1357.31 202.452C1357.31 208.309 1362.06 213.057 1367.92 213.057H1371.6C1375.26 213.057 1378.22 216.024 1378.22 219.684V234.265C1378.22 237.926 1375.26 240.893 1371.6 240.893H1349.9C1333.8 240.893 1320.74 227.837 1320.74 211.731V71.7058C1320.74 68.0454 1323.71 65.0781 1327.37 65.0781H1350.68C1354.34 65.0781 1357.31 68.0454 1357.31 71.7058V202.452Z" fill="#F5F7FB"/>
<path fill-rule="evenodd" clip-rule="evenodd" d="M897.965 110.269C911.299 110.269 922.803 113.13 932.475 118.854C942.204 124.519 949.701 132.474 954.967 142.718C960.232 152.906 962.864 164.81 962.864 178.431C962.864 191.938 960.232 203.813 954.967 214.058C949.701 224.245 942.204 232.2 932.475 237.923C922.803 243.588 911.299 246.422 897.965 246.422C884.63 246.422 873.097 243.589 863.367 237.923C853.695 232.2 846.227 224.245 840.961 214.058C835.696 203.813 833.064 191.938 833.064 178.431C833.064 164.81 835.696 152.906 840.961 142.718C846.227 132.474 853.695 124.519 863.367 118.854C873.097 113.13 884.63 110.269 897.965 110.269ZM898.136 138.168C892.012 138.168 886.861 139.915 882.683 143.406C878.563 146.897 875.443 151.647 873.326 157.657C871.265 163.666 870.236 170.505 870.236 178.174C870.236 185.843 871.265 192.682 873.326 198.691C875.443 204.7 878.563 209.451 882.683 212.942C886.861 216.376 892.012 218.093 898.136 218.093C904.202 218.093 909.268 216.376 913.331 212.942C917.395 209.451 920.457 204.7 922.517 198.691C924.634 192.682 925.692 185.843 925.692 178.174C925.692 170.505 924.634 163.666 922.517 157.657C920.457 151.647 917.394 146.897 913.331 143.406C909.268 139.915 904.202 138.168 898.136 138.168Z" fill="#F5F7FB"/>
</svg>
