<svg width="1300" height="380" viewBox="0 0 1300 380" fill="none" xmlns="http://www.w3.org/2000/svg">
<path d="M201.108 113.286C214.023 113.286 224.493 123.755 224.493 136.67C224.493 149.585 214.023 160.055 201.108 160.055H120.561C105.318 161.441 74.6231 176.061 73.7916 223.453C73.0439 266.074 73.3606 333.741 73.684 368.859C73.7373 374.645 69.0652 379.351 63.2787 379.351H10.3932C4.65319 379.351 0 374.698 0 368.958V210.354C0 198.121 4.90126 186.397 13.6086 177.805L65.6313 126.466C74.1892 118.021 85.7294 113.286 97.7528 113.286H201.108Z" fill="#F5F7FB"/>
<path d="M194.353 0C238.846 0.00137575 274.693 15.9522 299.531 41.9665C323.932 67.5239 336 100.984 336.985 133.654C337.968 166.254 327.963 199.941 305.752 225.94C283.017 252.553 249.075 269.184 206.824 269.184H137.19C131.45 269.184 126.797 264.53 126.797 258.79V217.218C126.797 211.478 131.45 206.824 137.19 206.824H206.824C231.61 206.824 247.945 197.601 258.338 185.435C269.255 172.655 275.23 154.639 274.654 135.534C274.08 116.498 267.05 98.2519 254.426 85.0292C242.619 72.6628 224.317 62.9814 197.022 62.3875L194.353 62.3591H64.4377C58.6977 62.3591 54.0446 57.7059 54.0446 51.9659V10.3932C54.0446 4.65319 58.6977 4.18506e-08 64.4377 0H194.353Z" fill="#F5F7FB"/>
<path d="M823.226 240.562C845.895 235.981 871.448 242.806 889.136 258.508C891.83 260.899 891.67 265.052 889.036 267.51L876.635 279.079C874.001 281.537 869.893 281.352 867.043 279.148C856.57 271.047 841.844 267.411 829.17 269.972C822.081 271.405 816.091 274.678 811.725 279.717C807.402 284.707 803.841 292.386 803.215 304.095C802.373 319.848 805.782 329.893 810.184 336.183C814.554 342.429 820.84 346.324 828.356 348.159C841.882 351.46 857.21 347.633 866.73 340.766C869.652 338.658 873.773 338.361 876.475 340.743L889.196 351.96C891.898 354.343 892.176 358.493 889.498 360.903C872.41 376.285 844.915 383.087 821.241 377.308C807.709 374.005 794.737 366.444 785.6 353.386C776.494 340.373 772.143 323.267 773.253 302.494C774.179 285.173 779.719 270.836 789.048 260.068C798.336 249.35 810.553 243.124 823.226 240.562Z" fill="#F5F7FB"/>
<path fill-rule="evenodd" clip-rule="evenodd" d="M456.742 245.352C469.866 245.352 481.187 248.169 490.706 253.801C500.282 259.377 507.66 267.206 512.842 277.288C518.024 287.315 520.615 299.031 520.615 312.437C520.615 325.73 518.024 337.417 512.842 347.5C507.66 357.525 500.282 365.354 490.706 370.987C481.187 376.563 469.866 379.352 456.742 379.352C443.618 379.352 432.267 376.563 422.692 370.987C413.173 365.354 405.822 357.526 400.64 347.5C395.458 337.417 392.867 325.73 392.867 312.437C392.867 299.031 395.458 287.315 400.64 277.288C405.822 267.206 413.173 259.377 422.692 253.801C432.267 248.168 443.618 245.352 456.742 245.352ZM456.91 272.81C450.883 272.81 445.814 274.529 441.702 277.965C437.647 281.401 434.576 286.076 432.492 291.99C430.465 297.905 429.451 304.636 429.451 312.183C429.451 319.731 430.465 326.462 432.492 332.376C434.576 338.29 437.647 342.966 441.702 346.402C445.814 349.781 450.883 351.471 456.91 351.471C462.88 351.471 467.866 349.781 471.865 346.402C475.864 342.966 478.878 338.29 480.906 332.376C482.99 326.462 484.031 319.731 484.031 312.183C484.031 304.636 482.99 297.905 480.906 291.99C478.878 286.076 475.864 281.401 471.865 277.965C467.866 274.529 462.88 272.81 456.91 272.81Z" fill="#F5F7FB"/>
<path fill-rule="evenodd" clip-rule="evenodd" d="M972.984 245.326C986.108 245.326 997.43 248.142 1006.95 253.775C1016.52 259.351 1023.9 267.18 1029.08 277.262C1034.27 287.288 1036.86 299.005 1036.86 312.411C1036.86 325.703 1034.27 337.391 1029.08 347.473C1023.9 357.499 1016.52 365.328 1006.95 370.961C997.43 376.537 986.108 379.326 972.984 379.326C959.86 379.326 948.51 376.537 938.934 370.961C929.415 365.328 922.064 357.499 916.882 347.473C911.701 337.391 909.11 325.703 909.11 312.411C909.11 299.005 911.7 287.288 916.882 277.262C922.064 267.18 929.415 259.351 938.934 253.775C948.51 248.142 959.86 245.326 972.984 245.326ZM973.152 272.784C967.126 272.784 962.056 274.503 957.945 277.939C953.889 281.375 950.819 286.05 948.735 291.964C946.707 297.878 945.694 304.609 945.694 312.157C945.694 319.705 946.707 326.436 948.735 332.35C950.819 338.264 953.889 342.939 957.945 346.375C962.056 349.755 967.126 351.444 973.152 351.444C979.123 351.444 984.109 349.755 988.108 346.375C992.107 342.939 995.12 338.264 997.148 332.35C999.232 326.436 1000.27 319.705 1000.27 312.157C1000.27 304.609 999.232 297.878 997.148 291.964C995.12 286.05 992.107 281.375 988.108 277.939C984.109 274.503 979.123 272.784 973.152 272.784Z" fill="#F5F7FB"/>
<path fill-rule="evenodd" clip-rule="evenodd" d="M1244.92 245.326C1252.13 245.326 1259.03 246.171 1265.62 247.861C1272.26 249.551 1278.15 252.169 1283.27 255.718C1288.46 259.266 1292.54 263.829 1295.52 269.406C1298.51 274.925 1300 281.544 1300 289.261V370.268C1300 373.87 1297.08 376.791 1293.48 376.791H1272.39C1268.79 376.791 1265.87 373.87 1265.87 370.268V358.794H1264.85C1262.77 362.85 1259.98 366.427 1256.49 369.525C1253 372.567 1248.8 374.96 1243.9 376.707C1239 378.396 1233.34 379.242 1226.92 379.242C1218.64 379.242 1211.26 377.804 1204.78 374.932C1198.31 372.003 1193.18 367.695 1189.41 362.006C1185.69 356.261 1183.83 349.107 1183.83 340.545C1183.83 333.336 1185.15 327.28 1187.8 322.38C1190.45 317.479 1194.05 313.537 1198.62 310.552C1203.18 307.567 1208.36 305.313 1214.16 303.792C1220.02 302.271 1226.16 301.201 1232.58 300.581C1240.13 299.793 1246.21 299.061 1250.83 298.385C1255.45 297.653 1258.8 296.583 1260.88 295.175C1262.97 293.766 1264.01 291.682 1264.01 288.922V288.415C1264.01 283.064 1262.32 278.925 1258.94 275.996C1255.62 273.067 1250.89 271.602 1244.75 271.602C1238.27 271.602 1233.11 273.038 1229.28 275.911C1227.01 277.582 1225.19 279.512 1223.83 281.699C1222.2 284.333 1219.46 286.376 1216.37 286.125L1195.8 284.454C1191.87 284.135 1189.08 280.411 1190.47 276.725C1192.34 271.783 1194.97 267.343 1198.36 263.406C1203.32 257.605 1209.71 253.155 1217.54 250.057C1225.43 246.903 1234.55 245.326 1244.92 245.326ZM1264.26 316.635C1263.14 317.367 1261.59 318.043 1259.62 318.662C1257.7 319.225 1255.53 319.76 1253.11 320.267C1250.69 320.718 1248.27 321.141 1245.85 321.535C1243.42 321.873 1241.23 322.183 1239.25 322.465C1235.03 323.084 1231.34 324.07 1228.19 325.422C1225.03 326.774 1222.58 328.603 1220.84 330.913C1219.09 333.166 1218.22 335.982 1218.22 339.362C1218.22 344.262 1219.99 348.009 1223.54 350.6C1227.14 353.134 1231.71 354.401 1237.23 354.401C1242.52 354.401 1247.2 353.359 1251.25 351.275C1255.31 349.135 1258.49 346.262 1260.8 342.658C1263.11 339.053 1264.26 334.969 1264.26 330.407V316.635Z" fill="#F5F7FB"/>
<path d="M588.627 247.04H606.522C610.124 247.04 613.045 249.96 613.045 253.563V267.554C613.045 271.156 610.124 274.077 606.522 274.077H588.627V336.937C588.627 340.26 589.135 342.851 590.148 344.71C591.162 346.512 592.571 347.779 594.373 348.511C596.232 349.243 598.372 349.611 600.794 349.611C602.484 349.611 604.174 349.469 605.863 349.188C608.022 348.756 610.114 350.148 610.569 352.302L614.184 369.405C614.879 372.696 612.95 375.956 609.676 376.725C609.082 376.864 608.459 377.007 607.807 377.153C604.54 377.942 600.569 378.421 595.894 378.59C587.22 378.928 579.616 377.774 573.082 375.126C566.604 372.479 561.563 368.366 557.958 362.79C554.466 357.388 552.692 350.612 552.635 342.461V274.077H541.415C537.813 274.077 534.893 271.156 534.893 267.554V253.563C534.893 249.96 537.813 247.04 541.415 247.04H552.635V222.471C552.635 218.869 555.556 215.948 559.158 215.948H582.104C585.707 215.948 588.627 218.868 588.627 222.471V247.04Z" fill="#F5F7FB"/>
<path d="M346.534 237.886C360.203 235.241 371.522 235.647 379.964 236.908C382.464 237.281 385.424 237.924 387.943 238.534C391.444 239.383 392.234 242.809 391.442 246.324L386.281 269.232C385.489 272.746 382.094 274.612 378.592 273.768C377.695 273.553 376.474 273.319 374.568 273.035C369.791 272.321 362.668 271.97 353.475 273.749C350.128 274.397 348.542 275.592 347.61 276.564C346.499 277.721 345.439 279.522 344.623 282.233C342.811 288.257 343.27 294.144 343.272 298.614L343.258 370.299C343.257 373.902 340.336 376.821 336.734 376.821L313.251 376.816C309.649 376.815 306.729 373.894 306.73 370.292L306.744 298.627L306.713 297.539C306.598 293.872 306.344 282.673 309.645 271.706C313.776 257.98 324.173 242.215 346.534 237.886Z" fill="#F5F7FB"/>
<path d="M1085.82 338.958C1085.82 344.722 1090.49 349.394 1096.25 349.394H1099.88C1103.48 349.394 1106.4 352.315 1106.4 355.917V370.268C1106.4 373.87 1103.48 376.79 1099.88 376.79H1078.53C1062.68 376.79 1049.83 363.941 1049.83 348.09V210.279C1049.83 206.677 1052.75 203.756 1056.35 203.756H1079.3C1082.9 203.756 1085.82 206.677 1085.82 210.279V338.958Z" fill="#F5F7FB"/>
<path d="M1151.7 338.866C1151.7 344.63 1156.37 349.302 1162.14 349.302H1165.76C1169.36 349.302 1172.28 352.223 1172.28 355.825V370.175C1172.28 373.778 1169.36 376.698 1165.76 376.698H1144.41C1128.56 376.698 1115.71 363.849 1115.71 347.998V210.187C1115.71 206.584 1118.63 203.664 1122.23 203.664H1145.18C1148.78 203.664 1151.7 206.584 1151.7 210.187V338.866Z" fill="#F5F7FB"/>
<path fill-rule="evenodd" clip-rule="evenodd" d="M695.705 243.308C708.829 243.308 720.151 246.124 729.67 251.757C739.245 257.333 746.624 265.162 751.806 275.244C756.988 285.27 759.578 296.987 759.578 310.393C759.578 323.685 756.988 335.373 751.806 345.455C746.624 355.481 739.245 363.31 729.67 368.943C720.151 374.519 708.829 377.308 695.705 377.308C682.581 377.308 671.23 374.519 661.655 368.943C652.136 363.31 644.785 355.481 639.603 345.455C634.421 335.373 631.831 323.685 631.831 310.393C631.831 296.987 634.421 285.27 639.603 275.244C644.785 265.162 652.136 257.333 661.655 251.757C671.23 246.124 682.581 243.308 695.705 243.308ZM695.873 270.766C689.847 270.766 684.777 272.485 680.666 275.921C676.61 279.357 673.54 284.032 671.456 289.946C669.428 295.86 668.415 302.591 668.415 310.139C668.415 317.687 669.428 324.418 671.456 330.332C673.54 336.246 676.61 340.921 680.666 344.357C684.777 347.737 689.847 349.426 695.873 349.426C701.844 349.426 706.83 347.737 710.829 344.357C714.828 340.921 717.841 336.246 719.869 330.332C721.953 324.418 722.994 317.687 722.994 310.139C722.994 302.591 721.953 295.86 719.869 289.946C717.841 284.032 714.828 279.357 710.829 275.921C706.83 272.485 701.844 270.766 695.873 270.766Z" fill="#F5F7FB"/>
</svg>
