<svg width="1295" height="551" viewBox="0 0 1295 551" fill="none" xmlns="http://www.w3.org/2000/svg">
<path d="M670.685 80.609C679.875 80.609 687.325 88.0587 687.325 97.2485C687.325 106.438 679.875 113.888 670.685 113.888H613.372C602.525 114.874 580.684 125.277 580.093 158.999C579.561 189.326 579.786 237.475 580.016 262.463C580.054 266.58 576.73 269.929 572.612 269.929H534.981C530.897 269.929 527.586 266.618 527.586 262.534V149.679C527.586 140.974 531.073 132.632 537.269 126.518L574.286 89.9875C580.376 83.9782 588.587 80.609 597.142 80.609H670.685Z" fill="#0F4CFF"/>
<path d="M665.878 0C697.538 0.000978918 723.045 11.3509 740.719 29.8615C758.081 48.0469 766.668 71.8555 767.369 95.1021C768.068 118.298 760.949 142.269 745.146 160.769C728.968 179.705 704.816 191.539 674.753 191.539H625.204C621.12 191.539 617.809 188.228 617.809 184.143V154.562C617.809 150.478 621.12 147.167 625.204 147.167H674.753C692.389 147.167 704.012 140.604 711.407 131.947C719.176 122.854 723.427 110.034 723.017 96.4396C722.609 82.895 717.607 69.9116 708.624 60.503C700.222 51.7035 687.2 44.8147 667.778 44.3921L665.878 44.3719H573.437C569.353 44.3719 566.042 41.0609 566.042 36.9766V7.39532C566.042 3.311 569.353 2.9779e-08 573.437 0H665.878Z" fill="#0F4CFF"/>
<path d="M752.657 389.434C778.444 384.222 807.51 391.985 827.631 409.847C830.696 412.567 830.513 417.291 827.517 420.087L813.411 433.248C810.415 436.043 805.742 435.833 802.5 433.325C790.587 424.111 773.835 419.975 759.419 422.888C751.355 424.518 744.541 428.242 739.575 433.973C734.656 439.649 730.606 448.385 729.894 461.704C728.936 479.624 732.814 491.049 737.821 498.205C742.793 505.309 749.943 509.741 758.492 511.827C773.879 515.583 791.314 511.23 802.144 503.417C805.468 501.02 810.156 500.682 813.229 503.392L827.699 516.151C830.773 518.862 831.089 523.582 828.043 526.324C808.605 543.822 777.328 551.559 750.399 544.985C735.006 541.228 720.25 532.627 709.856 517.774C699.497 502.971 694.549 483.512 695.811 459.882C696.864 440.179 703.166 423.871 713.779 411.622C724.343 399.43 738.24 392.347 752.657 389.434Z" fill="#F5F7FB"/>
<path fill-rule="evenodd" clip-rule="evenodd" d="M345.034 394.852C359.963 394.852 372.842 398.056 383.67 404.463C394.562 410.806 402.955 419.712 408.85 431.181C414.744 442.586 417.691 455.914 417.691 471.163C417.691 486.284 414.744 499.579 408.85 511.048C402.955 522.452 394.562 531.358 383.67 537.765C372.842 544.108 359.963 547.281 345.034 547.281C330.105 547.281 317.193 544.108 306.301 537.765C295.473 531.358 287.111 522.452 281.217 511.048C275.322 499.579 272.375 486.284 272.375 471.163C272.375 455.914 275.322 442.586 281.217 431.181C287.111 419.712 295.473 410.806 306.301 404.463C317.193 398.056 330.105 394.852 345.034 394.852ZM345.225 426.087C338.37 426.087 332.603 428.042 327.926 431.95C323.313 435.859 319.82 441.177 317.45 447.905C315.143 454.632 313.991 462.289 313.991 470.874C313.991 479.46 315.143 487.117 317.45 493.844C319.82 500.572 323.313 505.89 327.926 509.799C332.603 513.643 338.37 515.565 345.225 515.565C352.017 515.565 357.688 513.643 362.238 509.799C366.787 505.89 370.214 500.572 372.521 493.844C374.892 487.117 376.076 479.46 376.076 470.874C376.076 462.289 374.892 454.632 372.521 447.905C370.215 441.177 366.786 435.859 362.238 431.95C357.688 428.042 352.017 426.087 345.225 426.087Z" fill="#F5F7FB"/>
<path fill-rule="evenodd" clip-rule="evenodd" d="M923.011 394.852C937.939 394.852 950.818 398.056 961.646 404.463C972.538 410.806 980.932 419.712 986.826 431.181C992.721 442.586 995.668 455.914 995.668 471.163C995.668 486.284 992.721 499.579 986.826 511.048C980.932 522.452 972.538 531.358 961.646 537.765C950.818 544.108 937.939 547.281 923.011 547.281C908.082 547.281 895.17 544.108 884.278 537.765C873.45 531.358 865.088 522.452 859.193 511.048C853.299 499.579 850.352 486.284 850.352 471.163C850.352 455.914 853.299 442.586 859.193 431.181C865.088 419.712 873.45 410.806 884.278 404.463C895.17 398.056 908.082 394.852 923.011 394.852ZM923.202 426.087C916.346 426.087 910.58 428.042 905.903 431.95C901.29 435.859 897.797 441.177 895.426 447.905C893.12 454.632 891.967 462.289 891.967 470.874C891.967 479.46 893.12 487.117 895.426 493.844C897.797 500.572 901.29 505.89 905.903 509.799C910.58 513.643 916.346 515.565 923.202 515.565C929.994 515.565 935.665 513.643 940.214 509.799C944.763 505.89 948.191 500.572 950.498 493.844C952.868 487.117 954.053 479.46 954.053 470.874C954.053 462.289 952.868 454.632 950.498 447.905C948.191 441.177 944.763 435.859 940.214 431.95C935.665 428.042 929.994 426.087 923.202 426.087Z" fill="#F5F7FB"/>
<path fill-rule="evenodd" clip-rule="evenodd" d="M1232.34 394.852C1240.54 394.852 1248.39 395.814 1255.89 397.736C1263.45 399.658 1270.14 402.637 1275.97 406.673C1281.87 410.71 1286.51 415.9 1289.91 422.244C1293.3 428.523 1295 436.052 1295 444.829V536.977C1295 541.075 1291.68 544.397 1287.58 544.397H1263.59C1259.5 544.397 1256.17 541.075 1256.17 536.977V523.925H1255.02C1252.65 528.539 1249.48 532.608 1245.51 536.132C1241.53 539.592 1236.76 542.315 1231.19 544.301C1225.61 546.223 1219.17 547.185 1211.87 547.185C1202.45 547.185 1194.06 545.55 1186.69 542.282C1179.32 538.951 1173.49 534.05 1169.2 527.579C1164.97 521.044 1162.85 512.906 1162.85 503.167C1162.85 494.966 1164.36 488.077 1167.37 482.503C1170.38 476.929 1174.48 472.444 1179.67 469.048C1184.86 465.653 1190.76 463.089 1197.36 461.359C1204.02 459.629 1211 458.412 1218.31 457.707C1226.89 456.81 1233.81 455.977 1239.07 455.209C1244.32 454.376 1248.13 453.158 1250.5 451.557C1252.87 449.955 1254.06 447.583 1254.06 444.444V443.867C1254.06 437.781 1252.14 433.072 1248.29 429.74C1244.51 426.409 1239.13 424.742 1232.15 424.742C1224.78 424.742 1218.92 426.375 1214.56 429.643C1211.97 431.545 1209.91 433.74 1208.36 436.228C1206.5 439.224 1203.38 441.548 1199.87 441.262L1176.47 439.362C1172 438.999 1168.83 434.762 1170.41 430.57C1172.53 424.948 1175.52 419.898 1179.38 415.419C1185.02 408.82 1192.29 403.758 1201.2 400.234C1210.17 396.646 1220.55 394.852 1232.34 394.852ZM1254.35 475.968C1253.07 476.801 1251.3 477.569 1249.06 478.274C1246.88 478.915 1244.42 479.523 1241.66 480.1C1238.91 480.613 1236.15 481.094 1233.4 481.542C1230.64 481.926 1228.14 482.28 1225.9 482.6C1221.09 483.305 1216.9 484.426 1213.31 485.964C1209.72 487.501 1206.93 489.583 1204.95 492.21C1202.96 494.772 1201.97 497.977 1201.97 501.821C1201.97 507.395 1203.99 511.657 1208.02 514.604C1212.12 517.487 1217.31 518.929 1223.59 518.929C1229.62 518.929 1234.93 517.743 1239.55 515.372C1244.16 512.938 1247.78 509.67 1250.41 505.57C1253.03 501.469 1254.35 496.824 1254.35 491.634V475.968Z" fill="#F5F7FB"/>
<path d="M495.057 396.772H515.413C519.511 396.772 522.833 400.094 522.833 404.192V420.107C522.833 424.205 519.511 427.527 515.413 427.527H495.057V499.032C495.057 502.812 495.634 505.76 496.787 507.874C497.941 509.924 499.543 511.365 501.593 512.198C503.707 513.031 506.142 513.449 508.897 513.449C510.819 513.449 512.741 513.288 514.663 512.968C517.12 512.477 519.499 514.06 520.017 516.511L524.128 535.966C524.919 539.71 522.725 543.418 519 544.292C518.325 544.451 517.616 544.613 516.875 544.779C513.159 545.676 508.641 546.222 503.323 546.414C493.456 546.799 484.806 545.485 477.374 542.474C470.006 539.462 464.271 534.784 460.17 528.441C456.198 522.296 454.18 514.588 454.116 505.316V427.527H441.352C437.255 427.527 433.933 424.205 433.933 420.107V404.192C433.933 400.094 437.255 396.772 441.352 396.772H454.116V368.824C454.116 364.727 457.438 361.405 461.536 361.405H487.637C491.735 361.405 495.057 364.727 495.057 368.824V396.772Z" fill="#F5F7FB"/>
<path d="M219.671 386.36C235.219 383.35 248.094 383.812 257.698 385.247C260.541 385.672 263.908 386.403 266.774 387.097C270.756 388.062 271.655 391.96 270.754 395.958L264.883 422.016C263.983 426.014 260.121 428.136 256.137 427.177C255.117 426.931 253.728 426.666 251.559 426.342C246.125 425.53 238.023 425.131 227.566 427.155C223.758 427.892 221.954 429.251 220.894 430.356C219.631 431.672 218.425 433.721 217.497 436.805C215.434 443.657 215.957 450.354 215.959 455.439L215.943 536.983C215.942 541.081 212.62 544.402 208.522 544.401L181.81 544.395C177.712 544.395 174.391 541.072 174.392 536.974L174.407 455.453L174.373 454.216C174.242 450.045 173.953 437.305 177.707 424.83C182.406 409.217 194.233 391.283 219.671 386.36Z" fill="#F5F7FB"/>
<path fill-rule="evenodd" clip-rule="evenodd" d="M77.6557 347.568C92.5846 347.568 105.304 350.418 115.812 356.121C126.319 361.759 134.328 369.608 139.838 379.667C145.412 389.663 148.2 401.196 148.2 414.267C148.2 427.338 145.381 438.87 139.743 448.865C134.104 458.861 125.935 466.646 115.235 472.221C104.599 477.795 91.7201 480.583 76.5992 480.583H41.6154V536.978C41.6154 541.076 38.2934 544.398 34.1954 544.398H7.41993C3.32202 544.398 0 541.076 0 536.978V354.987C0 350.89 3.32202 347.568 7.41993 347.568H77.6557ZM41.6154 447.232H69.8705C77.8796 447.232 84.4797 445.854 89.6696 443.099C94.9234 440.28 98.8322 436.404 101.395 431.471C104.022 426.473 105.335 420.738 105.335 414.267C105.335 407.732 104.022 402.029 101.395 397.159C98.8322 392.226 94.9235 388.413 89.6696 385.722C84.4157 382.967 77.7521 381.591 69.6792 381.59H41.6154V447.232Z" fill="#F5F7FB"/>
<path d="M1051.36 501.361C1051.36 507.918 1056.68 513.233 1063.23 513.233H1067.36C1071.45 513.233 1074.78 516.555 1074.78 520.653V536.977C1074.78 541.075 1071.45 544.397 1067.36 544.397H1043.07C1025.04 544.397 1010.42 529.78 1010.42 511.749V354.986C1010.42 350.888 1013.74 347.566 1017.84 347.566H1043.94C1048.04 347.566 1051.36 350.888 1051.36 354.986V501.361Z" fill="#F5F7FB"/>
<path d="M1126.3 501.256C1126.3 507.813 1131.62 513.128 1138.18 513.128H1142.3C1146.4 513.128 1149.72 516.45 1149.72 520.548V536.872C1149.72 540.97 1146.4 544.292 1142.3 544.292H1118.01C1099.98 544.292 1085.36 529.675 1085.36 511.644V354.881C1085.36 350.783 1088.68 347.461 1092.78 347.461H1118.88C1122.98 347.461 1126.3 350.783 1126.3 354.881V501.256Z" fill="#F5F7FB"/>
<path fill-rule="evenodd" clip-rule="evenodd" d="M612.049 398.053C626.977 398.053 639.856 401.257 650.685 407.664C661.577 414.007 669.97 422.913 675.865 434.382C681.759 445.787 684.706 459.115 684.706 474.364C684.706 489.485 681.759 502.78 675.865 514.249C669.97 525.654 661.577 534.559 650.685 540.966C639.856 547.31 626.977 550.482 612.049 550.482C597.12 550.482 584.208 547.31 573.316 540.966C562.488 534.559 554.126 525.654 548.232 514.249C542.337 502.78 539.39 489.485 539.39 474.364C539.39 459.115 542.337 445.787 548.232 434.382C554.126 422.913 562.488 414.008 573.316 407.664C584.208 401.257 597.12 398.053 612.049 398.053ZM612.24 429.288C605.384 429.288 599.618 431.243 594.941 435.151C590.328 439.06 586.835 444.378 584.465 451.106C582.158 457.833 581.005 465.49 581.005 474.076C581.005 482.661 582.158 490.318 584.465 497.045C586.835 503.773 590.328 509.091 594.941 513C599.618 516.844 605.385 518.766 612.24 518.766C619.032 518.766 624.703 516.844 629.252 513C633.801 509.091 637.229 503.773 639.536 497.045C641.907 490.318 643.091 482.661 643.091 474.076C643.091 465.49 641.906 457.833 639.536 451.106C637.229 444.378 633.801 439.06 629.252 435.151C624.703 431.243 619.032 429.288 612.24 429.288Z" fill="#F5F7FB"/>
</svg>
