<svg width="1248" height="258" viewBox="0 0 1248 258" fill="none" xmlns="http://www.w3.org/2000/svg">
<rect width="257.794" height="257.794" rx="58.0037" fill="#0F4CFF"/>
<path d="M143.236 95.2864C148.919 95.2864 153.525 99.893 153.525 105.576C153.525 111.258 148.919 115.865 143.236 115.865H107.796C101.089 116.474 87.5837 122.907 87.2179 143.76C86.8889 162.512 87.0282 192.285 87.1705 207.737C87.194 210.283 85.1383 212.354 82.5922 212.354H59.3229C56.7974 212.354 54.75 210.306 54.75 207.781V137.996C54.75 132.613 56.9065 127.455 60.7377 123.674L83.6274 101.086C87.3928 97.3698 92.4704 95.2865 97.7606 95.2864H143.236Z" fill="#F5F7FB"/>
<path d="M140.264 45.4414C159.841 45.442 175.613 52.4603 186.542 63.9064C197.278 75.1515 202.588 89.8737 203.021 104.248C203.454 118.592 199.052 133.414 189.279 144.854C179.276 156.563 164.341 163.881 145.751 163.881H115.113C112.587 163.881 110.54 161.833 110.54 159.308V141.016C110.54 138.49 112.587 136.443 115.113 136.443H145.751C156.657 136.443 163.844 132.385 168.417 127.032C173.221 121.409 175.85 113.482 175.596 105.075C175.344 96.7 172.251 88.6716 166.696 82.8538C161.501 77.4126 153.448 73.1528 141.438 72.8915L140.264 72.879H83.1022C80.5767 72.879 78.5293 70.8317 78.5293 68.3061V50.0143C78.5293 47.4888 80.5767 45.4414 83.1022 45.4414H140.264Z" fill="#F5F7FB"/>
<path d="M847.084 84.8846C866.147 81.0319 887.633 86.771 902.507 99.9746C904.773 101.986 904.638 105.478 902.423 107.544L891.995 117.273C889.78 119.339 886.326 119.184 883.93 117.33C875.123 110.519 862.74 107.461 852.083 109.615C846.122 110.82 841.085 113.572 837.414 117.809C833.778 122.005 830.784 128.463 830.257 138.308C829.55 151.555 832.416 160.001 836.117 165.291C839.793 170.543 845.078 173.818 851.398 175.361C862.772 178.137 875.661 174.919 883.667 169.144C886.123 167.372 889.589 167.122 891.861 169.125L902.557 178.557C904.829 180.561 905.063 184.05 902.812 186.077C888.443 199.012 865.322 204.731 845.415 199.872C834.037 197.094 823.129 190.737 815.445 179.756C807.788 168.814 804.13 154.43 805.063 136.962C805.841 122.397 810.5 110.341 818.345 101.287C826.154 92.2739 836.427 87.0384 847.084 84.8846Z" fill="#111827"/>
<path fill-rule="evenodd" clip-rule="evenodd" d="M545.76 88.8901C556.796 88.8901 566.316 91.2585 574.321 95.9948C582.372 100.684 588.577 107.267 592.934 115.745C597.292 124.176 599.47 134.028 599.47 145.301C599.47 156.478 597.292 166.307 592.934 174.785C588.577 183.215 582.372 189.798 574.321 194.535C566.316 199.224 556.796 201.569 545.76 201.569C534.724 201.569 525.18 199.224 517.128 194.535C509.124 189.798 502.942 183.215 498.585 174.785C494.228 166.307 492.049 156.478 492.049 145.301C492.049 134.028 494.228 124.176 498.585 115.745C502.942 107.267 509.124 100.684 517.128 95.9948C525.18 91.2585 534.724 88.8901 545.76 88.8901ZM545.902 111.979C540.834 111.98 536.571 113.425 533.114 116.314C529.703 119.203 527.122 123.135 525.369 128.108C523.664 133.081 522.812 138.741 522.812 145.088C522.812 151.434 523.664 157.094 525.369 162.067C527.122 167.041 529.703 170.972 533.114 173.861C536.571 176.703 540.834 178.124 545.902 178.124C550.922 178.124 555.115 176.703 558.477 173.861C561.84 170.972 564.374 167.041 566.079 162.067C567.832 157.094 568.707 151.434 568.707 145.088C568.707 138.741 567.832 133.081 566.079 128.108C564.374 123.135 561.84 119.203 558.477 116.314C555.115 113.425 550.922 111.979 545.902 111.979Z" fill="#111827"/>
<path fill-rule="evenodd" clip-rule="evenodd" d="M973.014 88.8901C984.049 88.8901 993.57 91.2585 1001.57 95.9948C1009.63 100.684 1015.83 107.267 1020.19 115.745C1024.55 124.176 1026.72 134.028 1026.72 145.301C1026.72 156.478 1024.55 166.307 1020.19 174.785C1015.83 183.215 1009.63 189.798 1001.57 194.535C993.57 199.224 984.049 201.569 973.014 201.569C961.978 201.569 952.433 199.224 944.382 194.535C936.377 189.798 930.196 183.215 925.839 174.785C921.481 166.307 919.303 156.478 919.303 145.301C919.303 134.028 921.481 124.176 925.839 115.745C930.196 107.267 936.377 100.684 944.382 95.9948C952.433 91.2585 961.978 88.8901 973.014 88.8901ZM973.155 111.979C968.087 111.98 963.825 113.425 960.367 116.314C956.957 119.203 954.375 123.134 952.623 128.108C950.918 133.081 950.066 138.741 950.066 145.088C950.066 151.434 950.918 157.094 952.623 162.067C954.375 167.041 956.957 170.972 960.367 173.861C963.825 176.703 968.088 178.124 973.155 178.124C978.176 178.124 982.368 176.703 985.731 173.861C989.094 170.972 991.628 167.041 993.333 162.067C995.085 157.094 995.961 151.434 995.961 145.088C995.961 138.741 995.085 133.081 993.333 128.108C991.628 123.135 989.094 119.203 985.731 116.314C982.368 113.425 978.176 111.979 973.155 111.979Z" fill="#111827"/>
<path fill-rule="evenodd" clip-rule="evenodd" d="M1201.68 88.8901C1207.74 88.8901 1213.54 89.601 1219.08 91.0219C1224.67 92.4429 1229.62 94.6446 1233.93 97.6286C1238.29 100.612 1241.72 104.449 1244.23 109.138C1246.74 113.78 1248 119.346 1248 125.834V193.952C1248 196.981 1245.54 199.437 1242.51 199.437H1224.78C1221.75 199.437 1219.3 196.981 1219.3 193.952V184.304H1218.44C1216.69 187.714 1214.35 190.723 1211.41 193.327C1208.47 195.885 1204.94 197.898 1200.82 199.366C1196.7 200.787 1191.94 201.498 1186.54 201.498C1179.58 201.498 1173.38 200.29 1167.93 197.874C1162.48 195.411 1158.17 191.788 1155 187.005C1151.87 182.174 1150.31 176.158 1150.31 168.959C1150.31 162.896 1151.42 157.804 1153.65 153.684C1155.88 149.563 1158.91 146.248 1162.74 143.738C1166.58 141.228 1170.94 139.332 1175.82 138.053C1180.74 136.775 1185.9 135.875 1191.3 135.354C1197.65 134.691 1202.77 134.075 1206.65 133.507C1210.53 132.891 1213.35 131.991 1215.1 130.807C1216.86 129.623 1217.73 127.87 1217.73 125.549V125.123C1217.73 120.624 1216.31 117.143 1213.47 114.68C1210.68 112.217 1206.7 110.985 1201.54 110.985C1196.09 110.985 1191.75 112.193 1188.53 114.608C1186.62 116.014 1185.09 117.637 1183.95 119.476C1182.57 121.691 1180.27 123.408 1177.67 123.197L1160.38 121.793C1157.07 121.525 1154.73 118.393 1155.9 115.294C1157.46 111.138 1159.67 107.404 1162.53 104.094C1166.7 99.2154 1172.07 95.4738 1178.66 92.8688C1185.29 90.2165 1192.96 88.8901 1201.68 88.8901ZM1217.95 148.853C1217 149.469 1215.7 150.037 1214.04 150.558C1212.43 151.031 1210.6 151.481 1208.57 151.907C1206.53 152.286 1204.5 152.642 1202.46 152.973C1200.42 153.257 1198.57 153.518 1196.92 153.755C1193.36 154.276 1190.26 155.105 1187.61 156.242C1184.96 157.378 1182.9 158.917 1181.43 160.859C1179.96 162.753 1179.23 165.122 1179.23 167.964C1179.23 172.084 1180.72 175.235 1183.7 177.414C1186.73 179.545 1190.57 180.61 1195.21 180.61C1199.66 180.61 1203.59 179.734 1207.01 177.981C1210.42 176.182 1213.09 173.766 1215.03 170.735C1216.98 167.704 1217.95 164.27 1217.95 160.434V148.853Z" fill="#111827"/>
<path d="M656.661 90.3095H671.708C674.737 90.3095 677.193 92.7653 677.193 95.7945V107.559C677.193 110.589 674.737 113.044 671.708 113.044H656.661V165.903C656.661 168.697 657.087 170.876 657.94 172.439C658.792 173.954 659.977 175.019 661.492 175.635C663.055 176.251 664.855 176.56 666.892 176.56C668.312 176.56 669.733 176.441 671.154 176.204C672.97 175.841 674.728 177.011 675.111 178.823L678.151 193.205C678.736 195.972 677.114 198.713 674.36 199.36C673.861 199.477 673.337 199.597 672.789 199.72C670.042 200.383 666.703 200.786 662.771 200.928C655.477 201.212 649.083 200.241 643.589 198.015C638.142 195.789 633.903 192.331 630.872 187.642C627.935 183.1 626.443 177.402 626.396 170.548V113.044H616.961C613.932 113.044 611.476 110.589 611.476 107.559V95.7945C611.476 92.7652 613.932 90.3095 616.961 90.3095H626.396V69.6498C626.396 66.6205 628.852 64.1648 631.881 64.1648H651.176C654.205 64.1648 656.661 66.6206 656.661 69.6498V90.3095Z" fill="#111827"/>
<path d="M453.089 82.6124C464.582 80.3877 474.1 80.7291 481.199 81.7896C483.301 82.1036 485.79 82.6442 487.908 83.1574C490.852 83.8707 491.517 86.7521 490.851 89.7073L486.511 108.97C485.845 111.926 482.99 113.494 480.045 112.785C479.291 112.604 478.264 112.408 476.661 112.168C472.645 111.568 466.655 111.273 458.925 112.769C456.11 113.314 454.777 114.319 453.993 115.135C453.059 116.108 452.168 117.623 451.482 119.903C449.957 124.968 450.344 129.918 450.345 133.677L450.333 193.956C450.333 196.986 447.876 199.441 444.847 199.44L425.101 199.436C422.072 199.435 419.617 196.979 419.617 193.95L419.629 133.688L419.603 132.773C419.506 129.69 419.293 120.272 422.068 111.051C425.542 99.5087 434.285 86.252 453.089 82.6124Z" fill="#111827"/>
<path fill-rule="evenodd" clip-rule="evenodd" d="M348.108 53.9362C359.144 53.9362 368.546 56.0436 376.314 60.2589C384.081 64.4269 390.001 70.2293 394.075 77.6652C398.195 85.0539 400.256 93.5799 400.256 103.242C400.256 112.904 398.172 121.429 394.004 128.818C389.836 136.207 383.797 141.962 375.887 146.083C368.025 150.203 358.505 152.264 347.327 152.264H321.466V193.953C321.466 196.982 319.01 199.438 315.981 199.438H296.188C293.159 199.438 290.703 196.982 290.703 193.953V59.4212C290.703 56.3919 293.159 53.9362 296.188 53.9362H348.108ZM321.466 127.611H342.353C348.274 127.611 353.152 126.592 356.989 124.555C360.873 122.471 363.762 119.606 365.657 115.959C367.599 112.265 368.57 108.026 368.57 103.242C368.57 98.411 367.599 94.1952 365.657 90.5956C363.762 86.9486 360.873 84.1303 356.989 82.141C353.105 80.1044 348.179 79.0868 342.212 79.0868H321.466V127.611Z" fill="#111827"/>
<path d="M1067.89 167.624C1067.89 172.471 1071.82 176.4 1076.67 176.4H1079.72C1082.75 176.4 1085.2 178.856 1085.2 181.885V193.952C1085.2 196.981 1082.75 199.437 1079.72 199.437H1061.76C1048.43 199.437 1037.63 188.632 1037.63 175.303V59.4199C1037.63 56.3907 1040.08 53.935 1043.11 53.935H1062.41C1065.44 53.935 1067.89 56.3907 1067.89 59.4199V167.624Z" fill="#111827"/>
<path d="M1123.29 167.546C1123.29 172.393 1127.22 176.322 1132.07 176.322H1135.12C1138.14 176.322 1140.6 178.778 1140.6 181.807V193.874C1140.6 196.904 1138.14 199.359 1135.12 199.359H1117.16C1103.83 199.359 1093.03 188.554 1093.03 175.225V59.3424C1093.03 56.3131 1095.48 53.8574 1098.51 53.8574H1117.81C1120.84 53.8574 1123.29 56.3131 1123.29 59.3424V167.546Z" fill="#111827"/>
<path fill-rule="evenodd" clip-rule="evenodd" d="M743.144 91.2564C754.179 91.2565 763.7 93.6249 771.704 98.3612C779.756 103.05 785.96 109.634 790.318 118.111C794.675 126.542 796.854 136.394 796.854 147.667C796.854 158.845 794.675 168.673 790.318 177.151C785.96 185.582 779.756 192.165 771.704 196.901C763.7 201.59 754.179 203.935 743.144 203.935C732.108 203.935 722.563 201.59 714.511 196.901C706.507 192.165 700.326 185.582 695.969 177.151C691.611 168.673 689.433 158.845 689.433 147.667C689.433 136.394 691.611 126.542 695.969 118.111C700.326 109.633 706.507 103.05 714.511 98.3612C722.563 93.6248 732.108 91.2564 743.144 91.2564ZM743.285 114.346C738.217 114.346 733.955 115.791 730.497 118.68C727.087 121.569 724.505 125.501 722.753 130.474C721.048 135.447 720.196 141.107 720.196 147.454C720.196 153.801 721.048 159.461 722.753 164.434C724.505 169.407 727.087 173.338 730.497 176.228C733.955 179.069 738.217 180.49 743.285 180.49C748.306 180.49 752.498 179.069 755.861 176.228C759.224 173.338 761.758 169.407 763.463 164.434C765.215 159.461 766.091 153.801 766.091 147.454C766.091 141.107 765.215 135.447 763.463 130.474C761.758 125.501 759.224 121.569 755.861 118.68C752.498 115.791 748.306 114.346 743.285 114.346Z" fill="#111827"/>
</svg>
