<svg width="1496" height="310" viewBox="0 0 1496 310" fill="none" xmlns="http://www.w3.org/2000/svg">
<rect width="309.023" height="309.023" rx="69.5301" fill="#0F4CFF"/>
<path d="M171.695 114.221C178.507 114.221 184.029 119.743 184.029 126.555C184.029 133.366 178.507 138.888 171.695 138.888H129.212C121.173 139.619 104.983 147.33 104.545 172.326C104.15 194.805 104.318 230.495 104.488 249.017C104.516 252.069 102.052 254.551 99 254.551H71.1067C68.0792 254.551 65.625 252.097 65.625 249.07V165.418C65.625 158.965 68.2101 152.782 72.8026 148.25L100.241 121.172C104.755 116.718 110.841 114.221 117.183 114.221H171.695Z" fill="#F5F7FB"/>
<path d="M168.132 54.4707C191.599 54.4714 210.506 62.8844 223.606 76.6051C236.476 90.0847 242.841 107.732 243.36 124.964C243.879 142.158 238.602 159.926 226.888 173.638C214.896 187.674 196.994 196.446 174.71 196.446H137.983C134.956 196.446 132.501 193.992 132.501 190.964V169.037C132.501 166.01 134.956 163.556 137.983 163.556H174.71C187.783 163.556 196.398 158.691 201.88 152.274C207.638 145.534 210.789 136.032 210.485 125.955C210.183 115.915 206.475 106.292 199.817 99.3176C193.589 92.7951 183.936 87.6889 169.54 87.3757L168.132 87.3607H99.6113C96.5839 87.3607 94.1296 84.9065 94.1296 81.879V59.9524C94.1296 56.9249 96.5839 54.4707 99.6113 54.4707H168.132Z" fill="#F5F7FB"/>
<path d="M1015.41 101.753C1038.26 97.1351 1064.02 104.015 1081.85 119.842C1084.56 122.253 1084.4 126.439 1081.75 128.916L1069.25 140.578C1066.59 143.055 1062.45 142.868 1059.58 140.647C1049.02 132.482 1034.18 128.817 1021.4 131.398C1014.26 132.843 1008.22 136.142 1003.82 141.221C999.463 146.251 995.873 153.991 995.242 165.793C994.394 181.673 997.83 191.797 1002.27 198.138C1006.67 204.433 1013.01 208.36 1020.58 210.209C1034.22 213.537 1049.67 209.679 1059.26 202.757C1062.21 200.632 1066.36 200.333 1069.09 202.734L1081.91 214.041C1084.63 216.442 1084.91 220.625 1082.21 223.055C1064.99 238.56 1037.27 245.416 1013.41 239.591C999.773 236.261 986.697 228.64 977.486 215.478C968.307 202.361 963.922 185.118 965.041 164.179C965.974 146.72 971.558 132.269 980.962 121.415C990.324 110.611 1002.64 104.335 1015.41 101.753Z" fill="#0F4CFF"/>
<path fill-rule="evenodd" clip-rule="evenodd" d="M654.21 106.555C667.439 106.555 678.851 109.394 688.446 115.071C698.098 120.692 705.535 128.584 710.759 138.746C715.982 148.852 718.593 160.663 718.593 174.175C718.593 187.574 715.982 199.355 710.759 209.518C705.535 219.624 698.098 227.516 688.446 233.193C678.851 238.814 667.439 241.625 654.21 241.625C640.981 241.625 629.54 238.814 619.888 233.193C610.293 227.515 602.884 219.624 597.661 209.518C592.437 199.355 589.826 187.574 589.826 174.175C589.826 160.663 592.437 148.852 597.661 138.746C602.884 128.584 610.293 120.692 619.888 115.071C629.54 109.394 640.981 106.555 654.21 106.555ZM654.38 134.232C648.305 134.233 643.195 135.965 639.051 139.428C634.963 142.892 631.868 147.604 629.767 153.566C627.724 159.527 626.702 166.312 626.702 173.92C626.702 181.528 627.723 188.312 629.767 194.274C631.868 200.235 634.963 204.948 639.051 208.411C643.195 211.818 648.305 213.521 654.38 213.521C660.398 213.521 665.424 211.818 669.455 208.411C673.486 204.948 676.523 200.235 678.567 194.274C680.668 188.312 681.717 181.528 681.717 173.92C681.717 166.312 680.668 159.527 678.567 153.566C676.523 147.604 673.486 142.892 669.455 139.428C665.424 135.965 660.398 134.232 654.38 134.232Z" fill="#0F4CFF"/>
<path fill-rule="evenodd" clip-rule="evenodd" d="M1166.37 106.555C1179.6 106.555 1191.01 109.394 1200.6 115.071C1210.25 120.692 1217.69 128.584 1222.92 138.746C1228.14 148.852 1230.75 160.663 1230.75 174.175C1230.75 187.574 1228.14 199.355 1222.92 209.518C1217.69 219.624 1210.25 227.516 1200.6 233.193C1191.01 238.814 1179.6 241.625 1166.37 241.625C1153.14 241.625 1141.7 238.814 1132.04 233.193C1122.45 227.515 1115.04 219.624 1109.82 209.518C1104.59 199.355 1101.98 187.574 1101.98 174.175C1101.98 160.663 1104.59 148.852 1109.82 138.746C1115.04 128.584 1122.45 120.692 1132.04 115.071C1141.7 109.394 1153.14 106.555 1166.37 106.555ZM1166.54 134.232C1160.46 134.233 1155.35 135.965 1151.21 139.428C1147.12 142.892 1144.02 147.604 1141.92 153.566C1139.88 159.527 1138.86 166.312 1138.86 173.92C1138.86 181.528 1139.88 188.312 1141.92 194.274C1144.02 200.235 1147.12 204.948 1151.21 208.411C1155.35 211.818 1160.46 213.521 1166.54 213.521C1172.55 213.521 1177.58 211.818 1181.61 208.411C1185.64 204.948 1188.68 200.235 1190.72 194.274C1192.82 188.312 1193.87 181.528 1193.87 173.92C1193.87 166.312 1192.82 159.527 1190.72 153.566C1188.68 147.604 1185.64 142.892 1181.61 139.428C1177.58 135.965 1172.55 134.232 1166.54 134.232Z" fill="#0F4CFF"/>
<path fill-rule="evenodd" clip-rule="evenodd" d="M1440.47 106.555C1447.74 106.555 1454.69 107.407 1461.33 109.11C1468.03 110.814 1473.97 113.453 1479.13 117.03C1484.36 120.607 1488.47 125.206 1491.48 130.827C1494.49 136.391 1496 143.063 1496 150.841V232.494C1496 236.126 1493.05 239.069 1489.42 239.069H1468.16C1464.53 239.069 1461.59 236.126 1461.59 232.494V220.929H1460.57C1458.47 225.017 1455.66 228.623 1452.14 231.746C1448.62 234.812 1444.39 237.225 1439.45 238.985C1434.51 240.688 1428.8 241.54 1422.33 241.54C1413.98 241.54 1406.55 240.091 1400.02 237.196C1393.49 234.244 1388.32 229.901 1384.52 224.167C1380.77 218.376 1378.9 211.165 1378.9 202.535C1378.9 195.268 1380.23 189.163 1382.9 184.224C1385.57 179.285 1389.2 175.311 1393.8 172.302C1398.4 169.293 1403.62 167.021 1409.47 165.488C1415.37 163.955 1421.56 162.876 1428.04 162.252C1435.64 161.457 1441.77 160.719 1446.43 160.038C1451.09 159.3 1454.46 158.221 1456.56 156.802C1458.67 155.382 1459.72 153.281 1459.72 150.499V149.988C1459.72 144.595 1458.01 140.422 1454.61 137.47C1451.26 134.518 1446.49 133.041 1440.3 133.041C1433.77 133.041 1428.57 134.488 1424.71 137.384C1422.42 139.069 1420.59 141.014 1419.22 143.219C1417.57 145.873 1414.81 147.933 1411.7 147.68L1390.96 145.996C1387 145.674 1384.19 141.92 1385.59 138.205C1387.47 133.223 1390.12 128.748 1393.54 124.78C1398.54 118.932 1404.98 114.447 1412.88 111.324C1420.82 108.145 1430.02 106.555 1440.47 106.555ZM1459.97 178.434C1458.84 179.171 1457.28 179.852 1455.29 180.477C1453.36 181.044 1451.17 181.584 1448.73 182.095C1446.29 182.549 1443.85 182.975 1441.41 183.372C1438.97 183.713 1436.75 184.026 1434.76 184.31C1430.51 184.934 1426.79 185.928 1423.61 187.29C1420.43 188.653 1417.96 190.498 1416.2 192.825C1414.44 195.096 1413.56 197.935 1413.56 201.342C1413.56 206.281 1415.35 210.058 1418.92 212.669C1422.56 215.224 1427.16 216.501 1432.72 216.501C1438.06 216.501 1442.77 215.451 1446.86 213.35C1450.94 211.193 1454.15 208.297 1456.48 204.664C1458.81 201.03 1459.97 196.914 1459.97 192.315V178.434Z" fill="#0F4CFF"/>
<path d="M787.149 108.256H805.186C808.817 108.256 811.761 111.2 811.761 114.831V128.934C811.761 132.565 808.817 135.509 805.186 135.509H787.149V198.871C787.149 202.221 787.66 204.832 788.682 206.706C789.704 208.523 791.124 209.8 792.94 210.538C794.814 211.276 796.971 211.646 799.413 211.646C801.116 211.646 802.819 211.503 804.522 211.22C806.699 210.784 808.807 212.187 809.266 214.359L812.909 231.599C813.61 234.916 811.666 238.202 808.365 238.977C807.767 239.117 807.139 239.261 806.482 239.408C803.189 240.203 799.186 240.687 794.474 240.857C785.73 241.198 778.065 240.034 771.479 237.365C764.95 234.697 759.869 230.552 756.235 224.931C752.715 219.486 750.926 212.655 750.87 204.439V135.509H739.56C735.929 135.509 732.985 132.565 732.985 128.934V114.831C732.985 111.2 735.929 108.256 739.56 108.256H750.87V83.4912C750.87 79.8599 753.813 76.9162 757.445 76.9162H780.574C784.205 76.9162 787.149 79.8599 787.149 83.4912V108.256Z" fill="#0F4CFF"/>
<path d="M543.123 99.0296C556.901 96.3629 568.31 96.7721 576.82 98.0434C579.34 98.4198 582.323 99.0677 584.862 99.6829C588.391 100.538 589.188 103.992 588.39 107.534L583.187 130.625C582.389 134.168 578.967 136.048 575.437 135.198C574.533 134.981 573.302 134.746 571.38 134.459C566.565 133.739 559.385 133.385 550.119 135.179C546.745 135.832 545.147 137.036 544.207 138.016C543.088 139.182 542.019 140.998 541.197 143.73C539.37 149.802 539.833 155.736 539.834 160.242L539.82 232.499C539.82 236.131 536.875 239.074 533.244 239.073L509.574 239.068C505.943 239.067 503 236.123 503.001 232.492L503.015 160.255L502.984 159.158C502.868 155.462 502.612 144.173 505.939 133.119C510.103 119.284 520.583 103.392 543.123 99.0296Z" fill="#0F4CFF"/>
<path fill-rule="evenodd" clip-rule="evenodd" d="M417.281 64.655C430.51 64.655 441.781 67.1811 451.092 72.2342C460.403 77.2304 467.499 84.1858 472.382 93.0993C477.322 101.956 479.792 112.177 479.792 123.759C479.792 135.341 477.293 145.56 472.297 154.417C467.301 163.274 460.062 170.173 450.581 175.113C441.156 180.052 429.744 182.522 416.345 182.522H385.345V232.496C385.345 236.127 382.401 239.071 378.77 239.071H355.044C351.412 239.071 348.469 236.127 348.469 232.496V71.23C348.469 67.5987 351.412 64.655 355.044 64.655H417.281ZM385.345 152.97H410.382C417.479 152.97 423.328 151.749 427.927 149.307C432.582 146.809 436.046 143.375 438.317 139.003C440.645 134.575 441.809 129.493 441.809 123.759C441.809 117.968 440.645 112.914 438.317 108.599C436.046 104.228 432.582 100.849 427.927 98.4646C423.271 96.0233 417.366 94.8034 410.213 94.8034H385.345V152.97Z" fill="#0F4CFF"/>
<path d="M1280.1 200.935C1280.1 206.744 1284.81 211.454 1290.62 211.454H1294.27C1297.91 211.454 1300.85 214.398 1300.85 218.029V232.494C1300.85 236.125 1297.91 239.069 1294.27 239.069H1272.75C1256.77 239.069 1243.82 226.117 1243.82 210.139V71.2284C1243.82 67.5972 1246.77 64.6535 1250.4 64.6535H1273.53C1277.16 64.6535 1280.1 67.5972 1280.1 71.2284V200.935Z" fill="#0F4CFF"/>
<path d="M1346.51 200.842C1346.51 206.652 1351.22 211.361 1357.03 211.361H1360.68C1364.31 211.361 1367.26 214.305 1367.26 217.936V232.401C1367.26 236.033 1364.31 238.976 1360.68 238.976H1339.16C1323.18 238.976 1310.23 226.024 1310.23 210.046V71.1355C1310.23 67.5043 1313.17 64.5605 1316.8 64.5605H1339.93C1343.57 64.5605 1346.51 67.5043 1346.51 71.1355V200.842Z" fill="#0F4CFF"/>
<path fill-rule="evenodd" clip-rule="evenodd" d="M890.817 109.391C904.046 109.391 915.458 112.231 925.053 117.908C934.705 123.529 942.143 131.42 947.366 141.583C952.589 151.689 955.201 163.499 955.201 177.012C955.201 190.411 952.589 202.192 947.366 212.355C942.143 222.461 934.705 230.352 925.053 236.03C915.458 241.65 904.046 244.461 890.817 244.461C877.589 244.461 866.147 241.65 856.495 236.03C846.9 230.352 839.491 222.461 834.268 212.355C829.044 202.192 826.433 190.411 826.433 177.012C826.433 163.499 829.044 151.689 834.268 141.583C839.491 131.42 846.901 123.529 856.495 117.908C866.147 112.23 877.589 109.391 890.817 109.391ZM890.987 137.069C884.912 137.069 879.802 138.802 875.658 142.265C871.57 145.728 868.475 150.441 866.374 156.402C864.331 162.364 863.309 169.149 863.309 176.756C863.309 184.364 864.331 191.149 866.374 197.11C868.475 203.072 871.57 207.784 875.658 211.248C879.802 214.654 884.912 216.357 890.987 216.357C897.005 216.357 902.031 214.654 906.062 211.248C910.093 207.784 913.13 203.072 915.174 197.11C917.275 191.149 918.324 184.364 918.324 176.756C918.324 169.149 917.275 162.364 915.174 156.402C913.13 150.441 910.093 145.728 906.062 142.265C902.031 138.802 897.005 137.069 890.987 137.069Z" fill="#0F4CFF"/>
</svg>
