<svg width="1385" height="287" viewBox="0 0 1385 287" fill="none" xmlns="http://www.w3.org/2000/svg">
<rect width="286.094" height="286.094" rx="64.3711" fill="#111827"/>
<path d="M158.958 105.746C165.264 105.746 170.376 110.859 170.376 117.165C170.376 123.471 165.264 128.584 158.958 128.584H119.627C112.184 129.26 97.1959 136.399 96.7899 159.541C96.4247 180.352 96.5794 213.394 96.7373 230.541C96.7633 233.367 94.482 235.665 91.6564 235.665H65.8327C63.0299 235.665 60.7578 233.393 60.7578 230.59V153.145C60.7578 147.171 63.1511 141.447 67.4028 137.251L92.8052 112.182C96.984 108.059 102.619 105.747 108.49 105.746H158.958Z" fill="#F5F7FB"/>
<path d="M155.659 50.4297C177.385 50.4304 194.889 58.2191 207.017 70.9217C218.932 83.4012 224.825 99.7395 225.306 115.692C225.786 131.61 220.9 148.06 210.055 160.755C198.954 173.75 182.38 181.871 161.749 181.871H127.747C124.944 181.871 122.672 179.598 122.672 176.796V156.496C122.672 153.693 124.944 151.421 127.747 151.421H161.749C173.852 151.421 181.828 146.917 186.903 140.977C192.234 134.736 195.151 125.939 194.87 116.61C194.59 107.315 191.157 98.4055 184.993 91.949C179.227 85.9105 170.291 81.1832 156.963 80.8932L155.659 80.8793H92.2224C89.4196 80.8793 87.1475 78.6072 87.1475 75.8044V55.5046C87.1475 52.7018 89.4196 50.4297 92.2224 50.4297H155.659Z" fill="#F5F7FB"/>
<path d="M940.075 94.2046C961.231 89.9291 985.076 96.2982 1001.58 110.951C1004.1 113.183 1003.95 117.058 1001.49 119.352L989.917 130.149C987.459 132.442 983.625 132.269 980.966 130.212C971.192 122.653 957.45 119.26 945.623 121.65C939.007 122.987 933.418 126.042 929.343 130.744C925.309 135.4 921.985 142.567 921.402 153.493C920.616 168.194 923.797 177.567 927.905 183.438C931.983 189.266 937.849 192.901 944.863 194.613C957.485 197.694 971.789 194.123 980.674 187.714C983.4 185.747 987.246 185.47 989.767 187.693L1001.64 198.16C1004.16 200.384 1004.42 204.257 1001.92 206.506C985.974 220.86 960.315 227.207 938.223 221.815C925.596 218.732 913.49 211.677 904.963 199.491C896.465 187.348 892.405 171.384 893.441 151.999C894.305 135.835 899.475 122.456 908.181 112.408C916.848 102.405 928.249 96.5949 940.075 94.2046Z" fill="#111827"/>
<path fill-rule="evenodd" clip-rule="evenodd" d="M605.673 98.6499C617.92 98.6499 628.486 101.278 637.369 106.535C646.304 111.738 653.19 119.044 658.026 128.453C662.862 137.809 665.279 148.743 665.279 161.253C665.279 173.658 662.862 184.565 658.026 193.974C653.19 203.33 646.305 210.636 637.369 215.892C628.486 221.095 617.92 223.698 605.673 223.698C593.426 223.698 582.834 221.096 573.898 215.892C565.015 210.635 558.155 203.33 553.319 193.974C548.484 184.565 546.066 173.658 546.066 161.253C546.066 148.743 548.484 137.809 553.319 128.453C558.155 119.044 565.015 111.738 573.898 106.535C582.834 101.278 593.426 98.6499 605.673 98.6499ZM605.83 124.274C600.206 124.274 595.476 125.878 591.639 129.084C587.854 132.291 584.989 136.653 583.044 142.173C581.152 147.692 580.206 153.973 580.206 161.016C580.206 168.06 581.152 174.341 583.044 179.86C584.989 185.379 587.854 189.742 591.639 192.949C595.476 196.102 600.206 197.679 605.83 197.679C611.402 197.679 616.055 196.102 619.787 192.949C623.519 189.742 626.331 185.379 628.223 179.86C630.168 174.341 631.139 168.06 631.139 161.016C631.139 153.973 630.168 147.692 628.223 142.173C626.331 136.654 623.518 132.29 619.787 129.084C616.055 125.878 611.402 124.274 605.83 124.274Z" fill="#111827"/>
<path fill-rule="evenodd" clip-rule="evenodd" d="M1079.83 98.6499C1092.08 98.6499 1102.64 101.278 1111.52 106.535C1120.46 111.738 1127.35 119.044 1132.18 128.453C1137.02 137.809 1139.44 148.743 1139.44 161.253C1139.44 173.658 1137.02 184.565 1132.18 193.974C1127.35 203.33 1120.46 210.636 1111.52 215.892C1102.64 221.096 1092.08 223.698 1079.83 223.698C1067.58 223.698 1056.99 221.096 1048.05 215.892C1039.17 210.636 1032.31 203.33 1027.48 193.974C1022.64 184.565 1020.22 173.658 1020.22 161.253C1020.22 148.743 1022.64 137.809 1027.48 128.453C1032.31 119.044 1039.17 111.738 1048.05 106.535C1056.99 101.278 1067.58 98.6499 1079.83 98.6499ZM1079.99 124.274C1074.36 124.274 1069.63 125.878 1065.79 129.084C1062.01 132.291 1059.14 136.653 1057.2 142.173C1055.31 147.692 1054.36 153.973 1054.36 161.016C1054.36 168.06 1055.31 174.341 1057.2 179.86C1059.14 185.379 1062.01 189.742 1065.79 192.949C1069.63 196.102 1074.36 197.679 1079.99 197.679C1085.56 197.679 1090.21 196.102 1093.94 192.949C1097.67 189.742 1100.49 185.379 1102.38 179.86C1104.32 174.341 1105.29 168.06 1105.29 161.016C1105.29 153.973 1104.32 147.692 1102.38 142.173C1100.49 136.654 1097.67 132.29 1093.94 129.084C1090.21 125.878 1085.56 124.274 1079.99 124.274Z" fill="#111827"/>
<path fill-rule="evenodd" clip-rule="evenodd" d="M1333.59 98.6499C1340.32 98.6499 1346.76 99.4389 1352.91 101.016C1359.11 102.593 1364.61 105.036 1369.39 108.348C1374.23 111.659 1378.04 115.917 1380.82 121.121C1383.61 126.272 1385 132.449 1385 139.65V215.245C1385 218.607 1382.28 221.332 1378.91 221.332H1359.23C1355.87 221.332 1353.15 218.607 1353.15 215.245V204.538H1352.2C1350.26 208.322 1347.65 211.661 1344.4 214.552C1341.14 217.39 1337.22 219.624 1332.65 221.254C1328.07 222.83 1322.79 223.62 1316.8 223.62C1309.07 223.62 1302.19 222.278 1296.14 219.598C1290.1 216.864 1285.31 212.844 1281.79 207.535C1278.32 202.174 1276.59 195.498 1276.59 187.508C1276.59 180.78 1277.82 175.129 1280.29 170.556C1282.76 165.983 1286.13 162.304 1290.39 159.518C1294.64 156.733 1299.48 154.629 1304.89 153.21C1310.36 151.791 1316.09 150.792 1322.08 150.214C1329.13 149.478 1334.8 148.795 1339.11 148.165C1343.42 147.481 1346.55 146.483 1348.49 145.169C1350.44 143.855 1351.41 141.909 1351.41 139.334V138.86C1351.41 133.867 1349.84 130.004 1346.68 127.271C1343.58 124.538 1339.17 123.171 1333.44 123.171C1327.39 123.171 1322.58 124.511 1319.01 127.191C1316.89 128.751 1315.19 130.552 1313.92 132.594C1312.39 135.051 1309.84 136.957 1306.95 136.723L1287.76 135.164C1284.1 134.867 1281.49 131.391 1282.79 127.952C1284.53 123.34 1286.98 119.197 1290.15 115.523C1294.78 110.109 1300.74 105.956 1308.05 103.065C1315.41 100.122 1323.92 98.6499 1333.59 98.6499ZM1351.65 165.195C1350.6 165.879 1349.15 166.509 1347.31 167.087C1345.53 167.613 1343.5 168.112 1341.24 168.585C1338.98 169.005 1336.72 169.4 1334.46 169.768C1332.2 170.083 1330.15 170.373 1328.31 170.636C1324.37 171.214 1320.93 172.134 1317.98 173.395C1315.04 174.657 1312.75 176.364 1311.12 178.519C1309.49 180.622 1308.68 183.25 1308.68 186.404C1308.68 190.977 1310.33 194.473 1313.65 196.891C1317.01 199.256 1321.27 200.439 1326.42 200.439C1331.36 200.439 1335.72 199.466 1339.51 197.521C1343.29 195.524 1346.26 192.843 1348.42 189.48C1350.57 186.116 1351.65 182.305 1351.65 178.047V165.195Z" fill="#111827"/>
<path d="M728.748 100.225H745.447C748.809 100.225 751.534 102.95 751.534 106.312V119.369C751.534 122.73 748.809 125.456 745.447 125.456H728.748V184.116C728.748 187.217 729.222 189.635 730.168 191.37C731.114 193.052 732.428 194.234 734.11 194.917C735.844 195.601 737.842 195.943 740.102 195.943C741.679 195.943 743.256 195.812 744.833 195.549C746.848 195.146 748.799 196.445 749.224 198.455L752.597 214.416C753.246 217.487 751.446 220.529 748.39 221.246C747.836 221.376 747.255 221.51 746.647 221.646C743.598 222.382 739.892 222.829 735.529 222.987C727.435 223.302 720.339 222.225 714.241 219.754C708.196 217.284 703.492 213.446 700.128 208.243C696.869 203.201 695.213 196.878 695.161 189.271V125.456H684.69C681.328 125.456 678.603 122.73 678.603 119.369V106.312C678.603 102.95 681.328 100.225 684.69 100.225H695.161V77.2975C695.161 73.9357 697.886 71.2104 701.248 71.2104H722.661C726.023 71.2104 728.748 73.9357 728.748 77.2975V100.225Z" fill="#111827"/>
<path d="M502.829 91.683C515.584 89.2142 526.147 89.593 534.025 90.7699C536.358 91.1184 539.12 91.7183 541.471 92.2879C544.738 93.0795 545.475 96.2772 544.737 99.5568L539.92 120.935C539.181 124.214 536.013 125.955 532.744 125.168C531.908 124.967 530.768 124.749 528.989 124.483C524.531 123.817 517.884 123.49 509.306 125.15C506.182 125.755 504.702 126.87 503.832 127.776C502.796 128.856 501.807 130.537 501.045 133.067C499.354 138.688 499.782 144.182 499.784 148.354L499.771 215.25C499.77 218.612 497.044 221.336 493.682 221.336L471.769 221.331C468.407 221.33 465.682 218.605 465.683 215.243L465.696 148.366L465.668 147.35C465.56 143.928 465.323 133.477 468.403 123.243C472.258 110.434 481.961 95.7222 502.829 91.683Z" fill="#111827"/>
<path fill-rule="evenodd" clip-rule="evenodd" d="M386.324 59.8589C398.571 59.8589 409.006 62.1976 417.626 66.8757C426.246 71.5012 432.816 77.9406 437.336 86.1927C441.909 94.3926 444.196 103.854 444.196 114.577C444.196 125.3 441.883 134.761 437.258 142.961C432.632 151.161 425.931 157.548 417.153 162.121C408.427 166.694 397.862 168.981 385.457 168.981H356.757V215.246C356.757 218.608 354.032 221.333 350.67 221.333H328.704C325.342 221.333 322.617 218.608 322.617 215.246V65.946C322.617 62.5842 325.342 59.8589 328.704 59.8589H386.324ZM356.757 141.621H379.937C386.507 141.621 391.922 140.49 396.18 138.23C400.49 135.917 403.696 132.738 405.799 128.691C407.954 124.591 409.031 119.886 409.031 114.577C409.031 109.216 407.954 104.537 405.799 100.543C403.696 96.4953 400.49 93.3675 396.18 91.1599C391.869 88.8998 386.403 87.7704 379.78 87.7704H356.757V141.621Z" fill="#111827"/>
<path d="M1185.13 186.027C1185.13 191.406 1189.49 195.766 1194.86 195.766H1198.25C1201.61 195.766 1204.33 198.491 1204.33 201.853V215.245C1204.33 218.607 1201.61 221.332 1198.25 221.332H1178.32C1163.53 221.332 1151.54 209.341 1151.54 194.549V65.9446C1151.54 62.5828 1154.26 59.8575 1157.62 59.8575H1179.04C1182.4 59.8575 1185.13 62.5828 1185.13 65.9446V186.027Z" fill="#111827"/>
<path d="M1246.6 185.941C1246.6 191.32 1250.97 195.68 1256.34 195.68H1259.73C1263.09 195.68 1265.81 198.405 1265.81 201.767V215.159C1265.81 218.521 1263.09 221.246 1259.73 221.246H1239.8C1225.01 221.246 1213.02 209.255 1213.02 194.463V65.8586C1213.02 62.4968 1215.74 59.7715 1219.1 59.7715H1240.52C1243.88 59.7715 1246.6 62.4968 1246.6 65.8586V185.941Z" fill="#111827"/>
<path fill-rule="evenodd" clip-rule="evenodd" d="M824.725 101.276C836.972 101.276 847.537 103.904 856.42 109.161C865.356 114.364 872.242 121.67 877.077 131.079C881.913 140.435 884.331 151.369 884.331 163.879C884.331 176.284 881.913 187.191 877.077 196.6C872.242 205.956 865.356 213.262 856.42 218.518C847.537 223.722 836.972 226.324 824.725 226.324C812.477 226.324 801.885 223.722 792.949 218.518C784.066 213.262 777.207 205.956 772.371 196.6C767.535 187.191 765.117 176.284 765.117 163.879C765.117 151.369 767.535 140.435 772.371 131.079C777.207 121.67 784.066 114.364 792.949 109.161C801.885 103.904 812.477 101.276 824.725 101.276ZM824.882 126.9C819.258 126.9 814.527 128.504 810.69 131.71C806.905 134.917 804.04 139.28 802.095 144.799C800.203 150.318 799.258 156.599 799.258 163.643C799.258 170.686 800.203 176.967 802.095 182.486C804.04 188.005 806.905 192.368 810.69 195.575C814.527 198.728 819.258 200.305 824.882 200.305C830.453 200.305 835.106 198.729 838.838 195.575C842.57 192.368 845.382 188.005 847.274 182.486C849.219 176.967 850.191 170.686 850.191 163.643C850.191 156.599 849.219 150.318 847.274 144.799C845.382 139.28 842.57 134.917 838.838 131.71C835.106 128.504 830.453 126.9 824.882 126.9Z" fill="#111827"/>
</svg>
