<svg width="1432" height="296" viewBox="0 0 1432 296" fill="none" xmlns="http://www.w3.org/2000/svg">
<rect width="295.802" height="295.802" rx="66.5555" fill="#131313"/>
<path d="M164.353 109.335C170.873 109.335 176.159 114.62 176.159 121.141C176.159 127.661 170.873 132.947 164.353 132.947H123.687C115.991 133.646 100.495 141.027 100.075 164.954C99.6976 186.472 99.8575 220.635 100.021 238.364C100.048 241.286 97.6889 243.662 94.7675 243.662H68.0675C65.1695 243.662 62.8203 241.312 62.8203 238.415V158.341C62.8203 152.165 65.2948 146.246 69.6908 141.908L95.9553 115.989C100.276 111.725 106.102 109.335 112.172 109.335H164.353Z" fill="#F5F7FB"/>
<path d="M160.942 52.1406C183.406 52.1413 201.503 60.1944 214.043 73.3281C226.362 86.2311 232.455 103.124 232.952 119.618C233.448 136.076 228.397 153.084 217.184 166.21C205.706 179.646 188.569 188.042 167.239 188.042H132.083C129.185 188.042 126.836 185.693 126.836 182.795V161.806C126.836 158.908 129.185 156.559 132.083 156.559H167.239C179.752 156.559 187.999 151.902 193.246 145.76C198.758 139.308 201.774 130.212 201.484 120.567C201.194 110.957 197.645 101.745 191.271 95.0689C185.31 88.8255 176.07 83.9377 162.29 83.6379L160.942 83.6235H95.3527C92.4547 83.6235 90.1055 81.2743 90.1055 78.3764V57.3878C90.1055 54.4899 92.4547 52.1406 95.3527 52.1406H160.942Z" fill="#F5F7FB"/>
<path d="M971.974 97.4005C993.847 92.9798 1018.5 99.565 1035.57 114.715C1038.17 117.023 1038.01 121.03 1035.47 123.401L1023.51 134.564C1020.97 136.935 1017 136.757 1014.25 134.63C1004.15 126.814 989.938 123.306 977.71 125.777C970.87 127.16 965.09 130.318 960.878 135.18C956.706 139.994 953.27 147.404 952.667 158.701C951.854 173.901 955.143 183.592 959.39 189.662C963.607 195.688 969.672 199.446 976.924 201.216C989.975 204.402 1004.76 200.709 1013.95 194.083C1016.77 192.049 1020.75 191.762 1023.35 194.061L1035.63 204.884C1038.23 207.183 1038.5 211.187 1035.92 213.513C1019.43 228.354 992.901 234.917 970.059 229.341C957.003 226.154 944.487 218.859 935.67 206.26C926.884 193.704 922.686 177.199 923.758 157.156C924.651 140.444 929.996 126.61 938.997 116.221C947.959 105.879 959.746 99.8718 971.974 97.4005Z" fill="#131313"/>
<path fill-rule="evenodd" clip-rule="evenodd" d="M626.224 101.997C638.887 101.997 649.811 104.714 658.995 110.149C668.234 115.529 675.354 123.083 680.353 132.811C685.353 142.485 687.853 153.79 687.853 166.724C687.853 179.55 685.353 190.827 680.353 200.555C675.354 210.229 668.234 217.782 658.995 223.217C649.811 228.597 638.887 231.288 626.224 231.288C613.561 231.288 602.609 228.597 593.37 223.217C584.186 217.782 577.094 210.229 572.094 200.555C567.094 190.827 564.594 179.55 564.594 166.724C564.594 153.79 567.094 142.485 572.094 132.811C577.094 123.083 584.186 115.529 593.37 110.149C602.609 104.714 613.561 101.997 626.224 101.997ZM626.386 128.49C620.571 128.49 615.68 130.149 611.713 133.464C607.8 136.779 604.838 141.29 602.827 146.996C600.871 152.703 599.893 159.197 599.893 166.48C599.893 173.762 600.87 180.256 602.827 185.963C604.838 191.669 607.8 196.18 611.713 199.495C615.68 202.756 620.572 204.386 626.386 204.387C632.147 204.387 636.958 202.756 640.816 199.495C644.675 196.18 647.583 191.669 649.539 185.963C651.55 180.256 652.554 173.762 652.554 166.48C652.554 159.197 651.55 152.703 649.539 146.996C647.583 141.29 644.675 136.779 640.816 133.464C636.958 130.148 632.147 128.49 626.386 128.49Z" fill="#131313"/>
<path fill-rule="evenodd" clip-rule="evenodd" d="M1116.47 101.997C1129.13 101.997 1140.06 104.714 1149.24 110.149C1158.48 115.529 1165.6 123.083 1170.6 132.811C1175.6 142.485 1178.1 153.79 1178.1 166.724C1178.1 179.55 1175.6 190.827 1170.6 200.555C1165.6 210.229 1158.48 217.782 1149.24 223.217C1140.06 228.597 1129.13 231.288 1116.47 231.288C1103.81 231.288 1092.86 228.597 1083.62 223.217C1074.43 217.782 1067.34 210.229 1062.34 200.555C1057.34 190.827 1054.84 179.55 1054.84 166.724C1054.84 153.79 1057.34 142.485 1062.34 132.811C1067.34 123.083 1074.43 115.529 1083.62 110.149C1092.86 104.714 1103.81 101.997 1116.47 101.997ZM1116.63 128.49C1110.82 128.49 1105.93 130.149 1101.96 133.464C1098.05 136.779 1095.08 141.29 1093.07 146.996C1091.12 152.703 1090.14 159.197 1090.14 166.48C1090.14 173.762 1091.12 180.256 1093.07 185.963C1095.08 191.669 1098.05 196.18 1101.96 199.495C1105.93 202.756 1110.82 204.386 1116.63 204.387C1122.39 204.387 1127.2 202.756 1131.06 199.495C1134.92 196.18 1137.83 191.669 1139.79 185.963C1141.8 180.256 1142.8 173.762 1142.8 166.48C1142.8 159.197 1141.8 152.703 1139.79 146.996C1137.83 141.29 1134.92 136.779 1131.06 133.464C1127.2 130.148 1122.39 128.49 1116.63 128.49Z" fill="#131313"/>
<path fill-rule="evenodd" clip-rule="evenodd" d="M1378.85 101.997C1385.8 101.997 1392.46 102.812 1398.82 104.443C1405.23 106.073 1410.91 108.6 1415.86 112.023C1420.86 115.447 1424.8 119.85 1427.68 125.23C1430.56 130.556 1432 136.942 1432 144.388V222.548C1432 226.024 1429.18 228.842 1425.7 228.842H1405.36C1401.88 228.842 1399.06 226.024 1399.06 222.548V211.478H1398.08C1396.07 215.391 1393.38 218.843 1390.01 221.832C1386.65 224.767 1382.6 227.076 1377.87 228.761C1373.14 230.391 1367.68 231.207 1361.48 231.207C1353.49 231.207 1346.37 229.82 1340.12 227.049C1333.87 224.223 1328.93 220.066 1325.29 214.577C1321.7 209.034 1319.91 202.131 1319.91 193.87C1319.91 186.914 1321.18 181.071 1323.74 176.343C1326.29 171.615 1329.77 167.811 1334.17 164.931C1338.58 162.05 1343.57 159.876 1349.17 158.408C1354.82 156.941 1360.75 155.909 1366.94 155.311C1374.23 154.55 1380.1 153.844 1384.55 153.192C1389.01 152.485 1392.24 151.452 1394.25 150.094C1396.26 148.735 1397.27 146.724 1397.27 144.061V143.572C1397.27 138.409 1395.64 134.415 1392.38 131.589C1389.17 128.763 1384.61 127.35 1378.68 127.349C1372.43 127.349 1367.46 128.735 1363.76 131.507C1361.57 133.12 1359.82 134.981 1358.51 137.092C1356.93 139.633 1354.29 141.604 1351.3 141.362L1331.46 139.75C1327.67 139.443 1324.98 135.849 1326.32 132.293C1328.11 127.524 1330.65 123.241 1333.93 119.442C1338.71 113.844 1344.88 109.551 1352.43 106.562C1360.04 103.519 1368.85 101.997 1378.85 101.997ZM1397.51 170.8C1396.43 171.507 1394.93 172.158 1393.03 172.756C1391.18 173.299 1389.09 173.816 1386.75 174.305C1384.42 174.74 1382.08 175.147 1379.74 175.528C1377.41 175.854 1375.29 176.154 1373.38 176.425C1369.31 177.023 1365.75 177.974 1362.71 179.278C1359.66 180.583 1357.3 182.348 1355.61 184.576C1353.93 186.75 1353.09 189.468 1353.09 192.729C1353.09 197.457 1354.8 201.072 1358.22 203.572C1361.7 206.017 1366.1 207.24 1371.43 207.24C1376.54 207.24 1381.05 206.234 1384.96 204.223C1388.87 202.158 1391.94 199.387 1394.17 195.909C1396.4 192.43 1397.51 188.49 1397.51 184.088V170.8Z" fill="#131313"/>
<path d="M753.475 103.625H770.741C774.217 103.625 777.035 106.443 777.035 109.919V123.418C777.035 126.894 774.217 129.712 770.741 129.712H753.475V190.363C753.475 193.57 753.965 196.07 754.943 197.863C755.921 199.602 757.28 200.825 759.019 201.531C760.813 202.238 762.878 202.592 765.215 202.592C766.845 202.592 768.475 202.455 770.106 202.184C772.189 201.767 774.207 203.11 774.646 205.189L778.134 221.691C778.805 224.866 776.944 228.011 773.784 228.753C773.211 228.888 772.611 229.026 771.982 229.167C768.829 229.927 764.998 230.39 760.487 230.553C752.118 230.879 744.781 229.765 738.476 227.211C732.226 224.657 727.362 220.689 723.884 215.308C720.515 210.096 718.803 203.558 718.748 195.693V129.712H707.923C704.447 129.712 701.629 126.894 701.629 123.418V109.919C701.629 106.443 704.447 103.625 707.923 103.625H718.748V79.9196C718.748 76.4437 721.566 73.6259 725.042 73.6259H747.182C750.658 73.6259 753.475 76.4437 753.475 79.9196V103.625Z" fill="#131313"/>
<path d="M519.889 94.7933C533.078 92.2406 543.999 92.6323 552.144 93.8492C554.556 94.2095 557.412 94.8298 559.843 95.4187C563.221 96.2372 563.983 99.5433 563.219 102.934L558.239 125.037C557.475 128.428 554.2 130.228 550.82 129.415C549.955 129.206 548.777 128.981 546.937 128.707C542.329 128.018 535.456 127.679 526.586 129.396C523.356 130.021 521.826 131.174 520.927 132.111C519.856 133.228 518.833 134.966 518.046 137.582C516.296 143.394 516.74 149.074 516.741 153.387L516.728 222.553C516.727 226.029 513.909 228.846 510.433 228.846L487.776 228.841C484.3 228.84 481.483 226.022 481.483 222.546L481.497 153.399L481.467 152.35C481.356 148.812 481.111 138.006 484.296 127.424C488.282 114.181 498.313 98.9695 519.889 94.7933Z" fill="#131313"/>
<path fill-rule="evenodd" clip-rule="evenodd" d="M399.431 61.8892C412.094 61.8892 422.882 64.3073 431.795 69.1442C440.708 73.9266 447.501 80.5845 452.175 89.1167C456.903 97.5948 459.267 107.378 459.267 118.465C459.267 129.551 456.876 139.333 452.094 147.811C447.311 156.289 440.382 162.893 431.306 167.621C422.285 172.35 411.361 174.714 398.535 174.714H368.861V222.55C368.861 226.026 366.043 228.843 362.567 228.843H339.856C336.38 228.843 333.562 226.026 333.562 222.55V68.1829C333.562 64.707 336.38 61.8892 339.856 61.8892H399.431ZM368.861 146.426H392.827C399.621 146.426 405.219 145.257 409.621 142.92C414.078 140.529 417.393 137.241 419.567 133.057C421.795 128.818 422.909 123.954 422.909 118.465C422.909 112.921 421.795 108.084 419.567 103.953C417.393 99.7688 414.078 96.535 409.621 94.2524C405.165 91.9156 399.513 90.7479 392.665 90.7479H368.861V146.426Z" fill="#131313"/>
<path d="M1225.34 192.339C1225.34 197.9 1229.85 202.408 1235.41 202.408H1238.91C1242.38 202.408 1245.2 205.226 1245.2 208.702V222.548C1245.2 226.024 1242.38 228.842 1238.91 228.842H1218.3C1203.01 228.842 1190.61 216.444 1190.61 201.15V68.1815C1190.61 64.7056 1193.43 61.8878 1196.91 61.8878H1219.05C1222.52 61.8878 1225.34 64.7056 1225.34 68.1815V192.339Z" fill="#131313"/>
<path d="M1288.91 192.25C1288.91 197.811 1293.41 202.32 1298.98 202.32H1302.47C1305.95 202.32 1308.77 205.137 1308.77 208.613V222.459C1308.77 225.935 1305.95 228.753 1302.47 228.753H1281.87C1266.58 228.753 1254.18 216.355 1254.18 201.061V68.0925C1254.18 64.6166 1257 61.7988 1260.47 61.7988H1282.61C1286.09 61.7988 1288.91 64.6166 1288.91 68.0925V192.25Z" fill="#131313"/>
<path fill-rule="evenodd" clip-rule="evenodd" d="M852.709 104.712C865.372 104.712 876.296 107.429 885.48 112.864C894.719 118.244 901.838 125.798 906.838 135.526C911.838 145.2 914.338 156.505 914.338 169.439C914.338 182.265 911.838 193.542 906.838 203.27C901.838 212.944 894.719 220.498 885.48 225.932C876.296 231.313 865.372 234.003 852.709 234.003C840.046 234.003 829.094 231.313 819.855 225.932C810.671 220.498 803.578 212.944 798.579 203.27C793.579 193.542 791.079 182.265 791.079 169.439C791.079 156.505 793.579 145.2 798.579 135.526C803.578 125.798 810.671 118.244 819.855 112.864C829.094 107.429 840.046 104.712 852.709 104.712ZM852.871 131.205C847.056 131.205 842.165 132.864 838.198 136.179C834.285 139.494 831.323 144.005 829.312 149.711C827.355 155.418 826.378 161.912 826.378 169.195C826.378 176.477 827.355 182.972 829.312 188.678C831.323 194.384 834.285 198.896 838.198 202.211C842.165 205.471 847.056 207.102 852.871 207.102C858.632 207.102 863.443 205.471 867.301 202.211C871.16 198.896 874.067 194.384 876.024 188.678C878.035 182.972 879.039 176.477 879.039 169.195C879.039 161.912 878.035 155.418 876.024 149.711C874.067 144.005 871.16 139.494 867.301 136.179C863.443 132.864 858.632 131.205 852.871 131.205Z" fill="#131313"/>
</svg>
