<svg width="1306" height="270" viewBox="0 0 1306 270" fill="none" xmlns="http://www.w3.org/2000/svg">
<rect width="269.775" height="269.775" rx="60.6994" fill="#F5F7FB"/>
<path d="M149.888 99.7143C155.834 99.7143 160.655 104.535 160.655 110.482C160.655 116.428 155.834 121.249 149.888 121.249H112.8C105.782 121.887 91.6487 128.618 91.2658 150.44C90.9216 170.064 91.0674 201.221 91.2163 217.391C91.2408 220.055 89.0896 222.222 86.4252 222.222H62.0745C59.4316 222.222 57.2891 220.08 57.2891 217.437V144.409C57.2891 138.776 59.5458 133.378 63.555 129.422L87.5085 105.783C91.4489 101.894 96.7625 99.7143 102.299 99.7143H149.888Z" fill="#131313"/>
<path d="M146.777 47.5527C167.264 47.5534 183.769 54.8978 195.206 66.8759C206.441 78.6436 211.998 94.05 212.451 109.093C212.904 124.103 208.297 139.614 198.07 151.585C187.602 163.839 171.974 171.496 152.52 171.496H120.457C117.814 171.496 115.672 169.354 115.672 166.711V147.569C115.672 144.926 117.814 142.783 120.457 142.783H152.52C163.932 142.783 171.453 138.537 176.239 132.935C181.266 127.051 184.017 118.755 183.751 109.958C183.487 101.194 180.25 92.792 174.438 86.7038C169.001 81.0097 160.574 76.552 148.006 76.2786L146.777 76.2655H86.9589C84.316 76.2655 82.1735 74.123 82.1735 71.48V52.3382C82.1735 49.6953 84.316 47.5527 86.9589 47.5527H146.777Z" fill="#131313"/>
<path d="M886.449 88.8304C906.398 84.7988 928.883 90.8045 944.448 104.622C946.819 106.726 946.678 110.381 944.36 112.543L933.448 122.724C931.13 124.887 927.515 124.724 925.008 122.784C915.791 115.656 902.833 112.457 891.68 114.71C885.442 115.971 880.171 118.852 876.33 123.285C872.525 127.676 869.391 134.434 868.841 144.737C868.1 158.6 871.099 167.438 874.973 172.974C878.819 178.469 884.35 181.897 890.964 183.512C902.866 186.417 916.354 183.049 924.732 177.006C927.303 175.151 930.93 174.89 933.307 176.986L944.501 186.857C946.878 188.953 947.123 192.605 944.767 194.726C929.73 208.262 905.535 214.247 884.703 209.162C872.796 206.255 861.381 199.602 853.34 188.111C845.327 176.661 841.499 161.608 842.475 143.328C843.29 128.086 848.165 115.47 856.374 105.995C864.547 96.5631 875.297 91.0843 886.449 88.8304Z" fill="#F5F7FB"/>
<path fill-rule="evenodd" clip-rule="evenodd" d="M571.122 93.0221C582.67 93.0222 592.633 95.5006 601.009 100.457C609.435 105.364 615.928 112.253 620.488 121.125C625.048 129.948 627.328 140.258 627.328 152.054C627.328 163.752 625.048 174.036 620.488 182.909C615.928 191.731 609.435 198.62 601.009 203.577C592.633 208.483 582.67 210.937 571.122 210.938C559.573 210.938 549.585 208.484 541.159 203.577C532.782 198.62 526.314 191.731 521.754 182.909C517.194 174.036 514.914 163.752 514.914 152.054C514.914 140.258 517.194 129.948 521.754 121.125C526.314 112.253 532.782 105.364 541.159 100.457C549.585 95.5006 559.573 93.0221 571.122 93.0221ZM571.27 117.185C565.966 117.185 561.506 118.697 557.887 121.72C554.319 124.744 551.617 128.858 549.783 134.062C547.999 139.267 547.107 145.19 547.107 151.831C547.107 158.473 547.999 164.396 549.783 169.6C551.617 174.805 554.319 178.919 557.887 181.942C561.506 184.916 565.966 186.403 571.27 186.403C576.524 186.403 580.911 184.916 584.43 181.942C587.949 178.919 590.601 174.805 592.385 169.6C594.219 164.396 595.135 158.473 595.135 151.831C595.135 145.19 594.219 139.267 592.385 134.062C590.601 128.858 587.949 124.744 584.43 121.72C580.911 118.697 576.524 117.185 571.27 117.185Z" fill="#F5F7FB"/>
<path fill-rule="evenodd" clip-rule="evenodd" d="M1018.23 93.0221C1029.78 93.0222 1039.74 95.5006 1048.12 100.457C1056.55 105.364 1063.04 112.253 1067.6 121.125C1072.16 129.948 1074.44 140.258 1074.44 152.054C1074.44 163.752 1072.16 174.036 1067.6 182.909C1063.04 191.731 1056.55 198.62 1048.12 203.577C1039.74 208.483 1029.78 210.938 1018.23 210.938C1006.68 210.938 996.695 208.484 988.269 203.577C979.892 198.62 973.424 191.731 968.864 182.909C964.304 174.036 962.024 163.752 962.024 152.054C962.024 140.258 964.304 129.948 968.864 121.125C973.424 112.253 979.892 105.364 988.269 100.457C996.695 95.5006 1006.68 93.0221 1018.23 93.0221ZM1018.38 117.185C1013.08 117.185 1008.62 118.697 1005 121.72C1001.43 124.744 998.727 128.858 996.893 134.062C995.109 139.267 994.217 145.19 994.217 151.831C994.217 158.473 995.109 164.396 996.893 169.6C998.727 174.805 1001.43 178.919 1005 181.942C1008.62 184.916 1013.08 186.403 1018.38 186.403C1023.63 186.403 1028.02 184.916 1031.54 181.942C1035.06 178.919 1037.71 174.805 1039.5 169.6C1041.33 164.396 1042.24 158.473 1042.25 151.831C1042.25 145.19 1041.33 139.267 1039.5 134.062C1037.71 128.858 1035.06 124.744 1031.54 121.72C1028.02 118.697 1023.63 117.185 1018.38 117.185Z" fill="#F5F7FB"/>
<path fill-rule="evenodd" clip-rule="evenodd" d="M1257.52 93.0221C1263.87 93.0221 1269.94 93.7661 1275.74 95.253C1281.59 96.74 1286.77 99.0441 1291.28 102.167C1295.84 105.289 1299.43 109.305 1302.06 114.211C1304.68 119.069 1306 124.893 1306 131.683V202.967C1306 206.137 1303.43 208.707 1300.26 208.707H1281.7C1278.53 208.707 1275.96 206.137 1275.96 202.967V192.87H1275.07C1273.23 196.439 1270.78 199.587 1267.71 202.313C1264.63 204.99 1260.94 207.096 1256.63 208.633C1252.32 210.12 1247.34 210.864 1241.69 210.864C1234.4 210.864 1227.91 209.599 1222.21 207.071C1216.51 204.494 1212 200.702 1208.68 195.697C1205.4 190.641 1203.77 184.346 1203.77 176.812C1203.77 170.468 1204.93 165.139 1207.26 160.827C1209.59 156.515 1212.76 153.046 1216.78 150.419C1220.79 147.792 1225.35 145.809 1230.46 144.47C1235.61 143.132 1241.02 142.19 1246.67 141.645C1253.31 140.951 1258.66 140.307 1262.73 139.713C1266.79 139.068 1269.74 138.126 1271.57 136.887C1273.41 135.648 1274.32 133.814 1274.32 131.385V130.939C1274.32 126.231 1272.84 122.588 1269.86 120.011C1266.94 117.434 1262.78 116.144 1257.37 116.144C1251.67 116.144 1247.14 117.408 1243.77 119.936C1241.77 121.407 1240.17 123.105 1238.97 125.03C1237.53 127.347 1235.12 129.145 1232.4 128.924L1214.3 127.454C1210.85 127.173 1208.39 123.896 1209.61 120.653C1211.25 116.304 1213.57 112.397 1216.56 108.932C1220.92 103.827 1226.54 99.9118 1233.43 97.1858C1240.37 94.4102 1248.4 93.0221 1257.52 93.0221ZM1274.55 155.772C1273.56 156.416 1272.19 157.01 1270.46 157.555C1268.77 158.051 1266.86 158.522 1264.73 158.968C1262.6 159.365 1260.47 159.737 1258.34 160.084C1256.21 160.381 1254.28 160.654 1252.54 160.902C1248.82 161.447 1245.58 162.314 1242.8 163.504C1240.03 164.693 1237.87 166.304 1236.33 168.336C1234.8 170.318 1234.03 172.797 1234.03 175.771C1234.03 180.083 1235.59 183.38 1238.71 185.66C1241.88 187.89 1245.9 189.005 1250.76 189.005C1255.41 189.005 1259.53 188.088 1263.1 186.254C1266.67 184.37 1269.47 181.843 1271.5 178.671C1273.53 175.499 1274.55 171.905 1274.55 167.891V155.772Z" fill="#F5F7FB"/>
<path d="M687.176 94.5075H702.923C706.093 94.5075 708.663 97.0774 708.663 100.247V112.559C708.663 115.729 706.093 118.299 702.923 118.299H687.176V173.614C687.176 176.538 687.623 178.818 688.515 180.453C689.407 182.039 690.646 183.154 692.232 183.799C693.868 184.443 695.751 184.766 697.883 184.766C699.369 184.766 700.856 184.642 702.343 184.394C704.243 184.014 706.084 185.239 706.484 187.135L709.665 202.185C710.277 205.081 708.58 207.949 705.698 208.626C705.176 208.748 704.628 208.874 704.054 209.003C701.179 209.696 697.685 210.118 693.571 210.267C685.938 210.565 679.246 209.548 673.497 207.219C667.797 204.889 663.361 201.271 660.189 196.364C657.116 191.61 655.554 185.647 655.505 178.475V118.299H645.632C642.461 118.299 639.892 115.729 639.892 112.559V100.247C639.892 97.0774 642.461 94.5075 645.632 94.5075H655.505V72.8877C655.505 69.7176 658.075 67.1478 661.245 67.1478H681.436C684.606 67.1478 687.176 69.7176 687.176 72.8877V94.5075Z" fill="#F5F7FB"/>
<path d="M474.143 86.4526C486.171 84.1246 496.131 84.4818 503.56 85.5916C505.76 85.9203 508.365 86.4859 510.581 87.023C513.662 87.7695 514.357 90.7847 513.661 93.8773L509.119 114.036C508.422 117.128 505.435 118.77 502.353 118.028C501.564 117.838 500.489 117.633 498.811 117.382C494.608 116.754 488.34 116.445 480.251 118.011C477.305 118.581 475.91 119.632 475.089 120.487C474.112 121.505 473.18 123.091 472.462 125.476C470.866 130.777 471.271 135.957 471.272 139.891L471.26 202.971C471.259 206.141 468.689 208.711 465.519 208.71L444.855 208.706C441.685 208.705 439.116 206.135 439.116 202.965L439.129 139.902L439.102 138.945C439 135.718 438.777 125.863 441.681 116.213C445.316 104.134 454.466 90.2614 474.143 86.4526Z" fill="#F5F7FB"/>
<path fill-rule="evenodd" clip-rule="evenodd" d="M364.284 56.4438C375.832 56.4438 385.672 58.6491 393.8 63.0604C401.929 67.422 408.124 73.494 412.387 81.2755C416.699 89.0077 418.855 97.9298 418.855 108.041C418.855 118.152 416.674 127.074 412.313 134.806C407.951 142.538 401.631 148.561 393.354 152.873C385.126 157.185 375.164 159.341 363.466 159.341H336.404V202.968C336.404 206.138 333.834 208.708 330.664 208.708H309.951C306.781 208.708 304.211 206.138 304.211 202.968V62.1837C304.211 59.0136 306.781 56.4438 309.951 56.4438H364.284ZM336.404 133.542H358.261C364.457 133.542 369.563 132.476 373.577 130.345C377.642 128.164 380.665 125.166 382.648 121.349C384.68 117.483 385.696 113.047 385.696 108.041C385.696 102.985 384.68 98.5738 382.648 94.8069C380.665 90.9904 377.642 88.0411 373.577 85.9594C369.513 83.8281 364.358 82.7632 358.113 82.7632H336.404V133.542Z" fill="#F5F7FB"/>
<path d="M1117.52 175.415C1117.52 180.487 1121.63 184.599 1126.71 184.599H1129.89C1133.06 184.599 1135.63 187.169 1135.63 190.339V202.967C1135.63 206.137 1133.06 208.706 1129.89 208.706H1111.1C1097.16 208.706 1085.85 197.399 1085.85 183.451V62.1824C1085.85 59.0123 1088.42 56.4425 1091.59 56.4425H1111.78C1114.95 56.4425 1117.52 59.0123 1117.52 62.1824V175.415Z" fill="#F5F7FB"/>
<path d="M1175.49 175.334C1175.49 180.406 1179.61 184.518 1184.68 184.518H1187.87C1191.04 184.518 1193.61 187.088 1193.61 190.258V202.885C1193.61 206.055 1191.04 208.625 1187.87 208.625H1169.08C1155.13 208.625 1143.82 197.318 1143.82 183.37V62.1012C1143.82 58.9312 1146.39 56.3613 1149.56 56.3613H1169.75C1172.92 56.3613 1175.49 58.9312 1175.49 62.1012V175.334Z" fill="#F5F7FB"/>
<path fill-rule="evenodd" clip-rule="evenodd" d="M777.678 95.4984C789.227 95.4985 799.19 97.977 807.566 102.933C815.992 107.84 822.485 114.73 827.045 123.601C831.605 132.424 833.885 142.734 833.885 154.531C833.885 166.228 831.605 176.513 827.045 185.385C822.485 194.207 815.992 201.096 807.566 206.053C799.19 210.96 789.227 213.414 777.678 213.414C766.13 213.414 756.142 210.96 747.715 206.053C739.339 201.096 732.871 194.207 728.311 185.385C723.751 176.513 721.471 166.228 721.471 154.531C721.471 142.734 723.751 132.424 728.311 123.601C732.871 114.73 739.339 107.84 747.715 102.933C756.142 97.9769 766.13 95.4984 777.678 95.4984ZM777.826 119.661C772.523 119.661 768.062 121.173 764.444 124.197C760.875 127.22 758.174 131.334 756.34 136.539C754.556 141.743 753.664 147.666 753.664 154.308C753.664 160.949 754.556 166.872 756.34 172.077C758.174 177.281 760.875 181.395 764.444 184.419C768.062 187.392 772.523 188.879 777.826 188.879C783.08 188.879 787.468 187.392 790.987 184.419C794.506 181.395 797.157 177.281 798.942 172.077C800.776 166.872 801.692 160.949 801.692 154.308C801.692 147.666 800.776 141.743 798.942 136.539C797.158 131.334 794.506 127.22 790.987 124.197C787.468 121.173 783.08 119.661 777.826 119.661Z" fill="#F5F7FB"/>
</svg>
